<svg width="1036" height="142" viewBox="0 0 1036 142" fill="none" xmlns="http://www.w3.org/2000/svg">
<g clip-path="url(#clip0)">
<path d="M43.5061 34.2268C42.8757 34.4653 42.1799 34.4647 41.5498 34.2253C40.9198 33.986 40.3991 33.5243 40.0861 32.9274L33.8596 24.3168L32.9572 23.113L25.7327 32.9382C25.4385 33.5101 24.9461 33.9552 24.3475 34.1903C23.749 34.4255 23.0852 34.4346 22.4805 34.216L31.7895 21.7269L23.1302 10.4452C23.7528 10.2209 24.4338 10.2179 25.0583 10.4368C25.6829 10.6558 26.213 11.0832 26.5593 11.6472L33.0131 20.3643L39.5031 11.6833C39.7996 11.1217 40.2921 10.6885 40.8871 10.4662C41.4821 10.244 42.1379 10.248 42.7301 10.4777L39.3696 14.9373L34.8179 20.8624C34.6915 20.9752 34.5904 21.1134 34.5211 21.268C34.4519 21.4225 34.4161 21.59 34.4161 21.7594C34.4161 21.9288 34.4519 22.0963 34.5211 22.2508C34.5904 22.4054 34.6915 22.5436 34.8179 22.6564L43.4881 34.2286L43.5061 34.2268ZM0.195037 21.5717L0.953045 17.8268C3.03576 10.4218 11.5254 7.34102 17.3657 11.9252C20.7858 14.6125 21.6394 18.417 21.4716 22.7051H2.20556C1.89334 30.3628 7.41957 34.9866 14.4853 32.6242C15.6307 32.2119 16.656 31.5219 17.4692 30.616C18.2825 29.7102 18.8583 28.6167 19.1452 27.4336C19.5188 26.2316 20.1342 26.0259 21.264 26.3724C21.0758 27.8386 20.5575 29.243 19.7481 30.4799C18.9388 31.7169 17.8595 32.7543 16.5915 33.5139C14.4969 34.6597 12.0936 35.1138 9.7254 34.8113C7.35716 34.5089 5.14518 33.4654 3.40574 31.8301C1.68584 29.8942 0.64637 27.449 0.445902 24.8672C0.445902 24.4431 0.301519 24.0461 0.204061 23.6653C0.195276 22.968 0.191065 22.2708 0.191428 21.5735L0.195037 21.5717ZM2.22902 21.0555H19.6524C19.5441 15.504 16.041 11.566 11.3684 11.5299C6.16705 11.4577 2.4456 15.3091 2.21639 21.0303L2.22902 21.0555Z" fill="#B4B4B4"/>
</g>
<path d="M163.067 24.197C164.846 24.197 166.289 22.7546 166.289 20.9754C166.289 19.1962 164.846 17.7539 163.067 17.7539C161.288 17.7539 159.846 19.1962 159.846 20.9754C159.846 22.7546 161.288 24.197 163.067 24.197Z" fill="#B4B4B4"/>
<path d="M154.048 27.3795L153.335 27.1972C148.039 25.8598 145.002 23.5858 145.002 20.9671C145.002 18.3465 148.041 16.0743 153.335 14.737L154.048 14.5565L154.248 15.2622C154.783 17.1097 155.469 18.9103 156.298 20.6458L156.451 20.9671L156.298 21.2883C155.468 23.0263 154.78 24.8275 154.248 26.6756L154.048 27.3795ZM153.006 16.3793C148.983 17.5127 146.513 19.2417 146.513 20.9671C146.513 22.6888 148.981 24.4196 153.006 25.5512C153.499 23.9847 154.094 22.4524 154.784 20.9671C154.089 19.4793 153.496 17.9466 153.006 16.3793ZM172.086 27.3795L171.888 26.672C171.351 24.8241 170.665 23.023 169.836 21.2865L169.682 20.9671L169.836 20.644C170.666 18.9096 171.35 17.1066 171.888 15.2586L172.086 14.5547L172.799 14.7352C178.096 16.0725 181.132 18.3447 181.132 20.9671C181.132 23.5876 178.094 25.8598 172.799 27.1972L172.086 27.3795ZM171.346 20.9671C172.068 22.53 172.669 24.0677 173.128 25.5512C177.152 24.4196 179.623 22.6888 179.623 20.9671C179.623 19.2417 177.154 17.5145 173.128 16.3793C172.635 17.9461 172.04 19.4787 171.346 20.9671Z" fill="#B4B4B4"/>
<path d="M152.995 16.3738L152.796 15.6699C151.306 10.4216 151.757 6.66224 154.036 5.35197C156.265 4.06155 159.851 5.58659 163.607 9.4398L164.12 9.96679L163.607 10.492C162.273 11.8793 161.054 13.3725 159.961 14.957L159.758 15.2494L159.404 15.2783C157.483 15.4291 155.577 15.7364 153.706 16.1969L152.995 16.3738ZM155.85 6.39513C155.446 6.39513 155.089 6.48357 154.787 6.65683C153.293 7.51771 153.029 10.5154 154.058 14.5618C155.666 14.2062 157.289 13.9517 158.924 13.8092C159.87 12.4665 160.903 11.1866 162.015 9.97762C159.664 7.69097 157.444 6.39513 155.85 6.39513ZM170.283 37.0475C168.139 37.0475 165.385 35.4304 162.526 32.4959L162.015 31.9707L162.526 31.4473C163.86 30.0577 165.08 28.5627 166.173 26.9768L166.376 26.6881L166.726 26.6538C168.647 26.5056 170.554 26.1995 172.425 25.7388L173.138 25.5583L173.338 26.264C174.822 31.5086 174.373 35.2734 172.097 36.5837C171.544 36.8969 170.918 37.057 170.283 37.0475ZM164.12 31.958C166.469 34.2447 168.691 35.5423 170.283 35.5423C170.689 35.5423 171.046 35.4521 171.346 35.2806C172.842 34.4179 173.107 31.4148 172.075 27.3685C170.469 27.7258 168.845 27.9821 167.206 28.1247C166.263 29.4695 165.232 30.7501 164.12 31.958Z" fill="#B4B4B4"/>
<path d="M173.139 16.3728L172.426 16.1941C170.554 15.7321 168.648 15.4249 166.726 15.2755L166.376 15.2448L166.174 14.9524C165.082 13.3671 163.862 11.8738 162.526 10.4874L162.016 9.96221L162.526 9.43883C166.28 5.58743 169.865 4.06239 172.097 5.351C174.375 6.66308 174.828 10.4224 173.339 15.6689L173.139 16.3728ZM167.206 13.8082C168.928 13.9616 170.56 14.2197 172.076 14.5608C173.106 10.5145 172.843 7.51674 171.346 6.65405C169.859 5.79317 167.06 7.11066 164.12 9.97665C165.232 11.1859 166.264 12.4636 167.206 13.8082ZM155.851 37.0465C155.216 37.0556 154.59 36.8955 154.037 36.5827C151.757 35.2724 151.306 31.5095 152.795 26.263L152.99 25.5573L153.703 25.7378C155.443 26.1763 157.359 26.485 159.402 26.6528L159.753 26.6871L159.956 26.9759C161.047 28.5605 162.267 30.0566 163.602 31.4463L164.115 31.9697L163.602 32.4949C160.745 35.4313 157.991 37.0465 155.851 37.0465ZM154.058 27.3693C153.03 31.4156 153.293 34.4188 154.788 35.2815C156.276 36.1297 159.067 34.8212 162.016 31.9571C160.904 30.7477 159.871 29.4678 158.924 28.1255C157.287 27.9808 155.662 27.7281 154.058 27.3693Z" fill="#B4B4B4"/>
<path d="M163.067 28.3167C161.827 28.3167 160.555 28.2643 159.277 28.1578L158.923 28.1272L158.719 27.8348C157.999 26.7987 157.321 25.7336 156.687 24.6421C156.058 23.5478 155.474 22.4285 154.935 21.2871L154.783 20.9676L154.935 20.6445C155.474 19.5039 156.057 18.385 156.687 17.2913C157.314 16.2156 157.998 15.14 158.719 14.0968L158.923 13.808L159.277 13.7756C161.798 13.5644 164.332 13.5644 166.854 13.7756L167.204 13.8098L167.408 14.0986C168.851 16.1719 170.119 18.3621 171.198 20.6464L171.347 20.9694L171.198 21.2889C170.122 23.5747 168.854 25.7652 167.408 27.8366L167.204 28.129L166.854 28.1597C165.579 28.2625 164.305 28.3167 163.067 28.3167ZM159.757 26.6851C161.986 26.853 164.148 26.853 166.375 26.6851C167.619 24.8645 168.724 22.9533 169.682 20.9676C168.727 18.9801 167.622 17.0687 166.375 15.2501C164.173 15.0804 161.96 15.0804 159.757 15.2501C158.51 17.068 157.404 18.9795 156.451 20.9676C157.411 22.9522 158.516 24.8633 159.757 26.6851Z" fill="#B4B4B4"/>
<path d="M304.278 4.74219C303.784 4.74219 303.29 4.86401 302.863 5.10766L289.451 12.8502C288.584 13.351 288.043 14.2985 288.043 15.3001V29.3504C288.043 30.3655 288.584 31.2995 289.451 31.8003L292.97 33.8307C294.676 34.6699 295.285 34.6699 296.056 34.6699C298.587 34.6699 300.036 33.1404 300.036 30.4874V15.9905C300.036 15.8864 299.994 15.7865 299.921 15.7129C299.847 15.6393 299.747 15.5979 299.643 15.5979H297.951C297.899 15.5972 297.848 15.6069 297.8 15.6263C297.752 15.6458 297.709 15.6747 297.672 15.7113C297.635 15.7479 297.607 15.7914 297.587 15.8394C297.568 15.8874 297.558 15.9387 297.559 15.9905V30.4738C297.559 31.665 296.327 32.8291 294.337 31.841L290.655 29.7158C290.589 29.6805 290.534 29.6277 290.496 29.5633C290.458 29.4989 290.438 29.4252 290.439 29.3504V15.3137C290.439 15.1513 290.52 15.0159 290.655 14.9347L304.069 7.19218C304.132 7.15248 304.205 7.1314 304.279 7.1314C304.353 7.1314 304.426 7.15248 304.489 7.19218L317.903 14.9347C318.038 15.0159 318.12 15.1513 318.12 15.3001V29.3504C318.12 29.4993 318.038 29.6481 317.917 29.7158L304.489 37.4719C304.424 37.5051 304.352 37.5225 304.279 37.5225C304.206 37.5225 304.134 37.5051 304.069 37.4719L300.618 35.428C300.571 35.3939 300.517 35.3733 300.459 35.3685C300.402 35.3637 300.344 35.3749 300.293 35.4009C299.332 35.9423 299.156 36.01 298.263 36.3213C298.046 36.389 297.708 36.5244 298.384 36.9034L302.865 39.5564C303.298 39.8 303.785 39.9354 304.272 39.9354C304.773 39.9354 305.261 39.8 305.694 39.5564L319.121 31.8003C319.988 31.2995 320.529 30.3655 320.529 29.3504V15.3137C320.529 14.2985 319.988 13.3645 319.121 12.8637L305.694 5.10766C305.266 4.86401 304.773 4.74219 304.278 4.74219ZM307.887 15.579C304.056 15.579 301.768 17.2033 301.768 19.9105C301.768 22.8477 304.042 23.6572 307.724 24.0226C312.123 24.4558 312.462 25.1082 312.462 25.9745C312.462 27.4635 311.257 28.0996 308.428 28.0996C304.868 28.0996 304.083 27.2049 303.826 25.4453C303.813 25.3544 303.767 25.2714 303.697 25.2116C303.628 25.1519 303.539 25.1195 303.447 25.1204H301.701C301.6 25.1204 301.504 25.1603 301.433 25.2314C301.362 25.3025 301.322 25.3989 301.322 25.4994C301.322 27.7599 302.553 30.4535 308.428 30.4535C312.678 30.4535 315.115 28.7751 315.115 25.8513C315.115 22.9547 313.152 22.1831 309.037 21.6282C304.854 21.0867 304.435 20.8025 304.435 19.8279C304.435 19.0157 304.8 17.9464 307.887 17.9464C310.634 17.9464 311.663 18.542 312.083 20.3964C312.123 20.5724 312.272 20.7077 312.462 20.7077H314.208C314.316 20.7077 314.411 20.6536 314.492 20.5724C314.529 20.5328 314.556 20.4856 314.573 20.4341C314.589 20.3826 314.594 20.3281 314.587 20.2746C314.316 17.0801 312.191 15.5776 307.887 15.5776V15.579Z" fill="#B4B4B4"/>
<path d="M429.443 6.09375H463.012V38.5798H429.443V6.09375ZM460.261 30.8319C460.017 29.3501 459.019 28.1048 456.062 26.9426C455.032 26.4751 453.889 26.1521 453.546 25.4013C453.419 24.9537 453.4 24.7119 453.482 24.4466C453.693 23.573 454.764 23.3113 455.603 23.5532C456.149 23.7156 456.653 24.1217 456.968 24.7732C458.413 23.8582 458.413 23.8582 459.422 23.25C459.044 22.6833 458.855 22.436 458.604 22.1924C457.721 21.2395 456.547 20.7522 454.639 20.7937L453.654 20.9146C452.708 21.1384 451.806 21.6275 451.261 22.2754C449.667 24.0224 450.127 27.0671 452.058 28.3286C453.965 29.7093 456.759 30.0125 457.115 31.3119C457.451 32.8965 455.899 33.4037 454.365 33.2214C453.233 32.9759 452.602 32.4291 451.91 31.413L449.352 32.8352C449.644 33.4831 449.98 33.7682 450.484 34.3367C452.917 36.7118 459.003 36.5909 460.094 32.9759C460.133 32.855 460.429 32.023 460.198 30.7434L460.261 30.8319ZM447.697 21.0247H444.553C444.553 23.647 444.54 26.2549 444.54 28.8827C444.54 30.5503 444.628 32.0808 444.346 32.5518C443.885 33.4849 442.694 33.3658 442.155 33.1997C441.601 32.9362 441.319 32.5699 440.993 32.0429C440.905 31.9021 440.84 31.7794 440.816 31.7794L438.265 33.3026C438.692 34.1563 439.314 34.889 440.118 35.3546C441.314 36.0459 442.919 36.2697 444.602 35.9051C445.698 35.5983 446.644 34.9684 447.134 33.9938C447.85 32.7359 447.697 31.191 447.692 29.4656C447.707 26.6845 447.692 23.9015 447.692 21.1005L447.697 21.0247Z" fill="#B4B4B4"/>
<g clip-path="url(#clip1)">
<path d="M569.072 0.679688L572.548 39.6629L588.147 43.9944L603.786 39.6575L607.268 0.679688H569.075H569.072ZM599.701 13.4305H581.406L581.842 18.3277H599.268L597.955 33.006L588.147 35.724L578.352 33.006L577.684 25.4963H582.484L582.825 29.3134L588.15 30.7482L588.161 30.7455L593.488 29.308L594.04 23.1086H577.47L576.181 8.64959H600.132L599.704 13.4305H599.701Z" fill="#B4B4B4"/>
</g>
<path d="M713.768 13.1974C710.599 17.7509 710.992 23.676 713.414 28.5146L713.591 28.8575C713.629 28.9297 713.665 29.0055 713.705 29.0758C713.726 29.1192 713.751 29.1607 713.775 29.2004C713.889 29.4103 714.008 29.6173 714.132 29.8212L714.264 30.0378C714.387 30.239 714.514 30.4376 714.645 30.6334C714.774 30.8278 714.907 31.0197 715.044 31.2091L715.109 31.2975C715.222 31.4564 715.342 31.6134 715.462 31.7686L715.596 31.9382L715.924 32.3407L716.049 32.4887C716.197 32.6638 716.35 32.8388 716.504 33.0103L716.513 33.0193C716.52 33.0265 716.525 33.0301 716.531 33.0391C716.681 33.2034 716.838 33.3658 716.993 33.5282L717.143 33.678L717.513 34.0408L717.664 34.1852C717.83 34.3422 718 34.4956 718.171 34.6472L718.179 34.6544L718.267 34.7284C718.417 34.8602 718.572 34.9901 718.727 35.1164L718.917 35.268C719.248 35.5339 719.588 35.7892 719.936 36.0333C719.989 36.0712 720.039 36.1091 720.093 36.1452L720.137 36.1759C720.274 36.2715 720.415 36.3617 720.554 36.452C720.613 36.4917 720.673 36.5332 720.736 36.5729C721.254 36.9038 721.788 37.2103 722.335 37.4915C722.452 37.5529 722.568 37.6143 722.687 37.6738L722.768 37.7135L722.913 37.7839C723.097 37.8705 723.283 37.959 723.468 38.042L723.588 38.0943C723.802 38.1882 724.019 38.2784 724.237 38.3632L724.396 38.4264C724.625 38.5152 724.854 38.6006 725.086 38.6827C725.311 38.7621 725.54 38.8361 725.771 38.9065L725.937 38.957C726.168 39.0274 726.399 39.1104 726.641 39.1555C741.967 41.9493 746.418 29.9476 746.418 29.9476C742.679 34.8169 736.044 36.1019 729.756 34.6725C729.518 34.6183 729.285 34.5443 729.052 34.4757L728.877 34.4234C728.417 34.2813 727.963 34.1223 727.515 33.9469L727.347 33.882C727.13 33.7972 726.916 33.7069 726.704 33.6149L726.576 33.5589C726.394 33.4772 726.213 33.393 726.033 33.3063L725.876 33.2305C725.735 33.1619 725.596 33.0879 725.457 33.0175C725.365 32.9688 725.27 32.9218 725.178 32.8695C725.009 32.7789 724.841 32.685 724.676 32.588L724.506 32.4941C724.285 32.364 724.067 32.2299 723.851 32.0916L723.674 31.9743C723.517 31.8732 723.361 31.7697 723.207 31.6639L723.057 31.5574C722.909 31.4527 722.761 31.3481 722.617 31.2398C722.417 31.0898 722.219 30.9364 722.025 30.7796L721.846 30.637C721.68 30.4998 721.514 30.3627 721.351 30.2201C721.156 30.0503 720.964 29.877 720.776 29.7003C720.725 29.6534 720.676 29.6083 720.63 29.5595C720.502 29.4397 720.377 29.3176 720.254 29.1932L720.108 29.047C719.952 28.8878 719.8 28.7259 719.65 28.5615L719.628 28.5398C719.47 28.3662 719.314 28.1899 719.162 28.011L719.041 27.8648C718.885 27.6796 718.732 27.4912 718.583 27.2999C718.451 27.1299 718.322 26.9578 718.195 26.7838C714.704 22.0228 713.452 15.4552 716.24 10.0625" fill="#B4B4B4"/>
<path d="M723.601 9.35704C721.309 12.6544 721.436 17.0689 723.222 20.5557C723.522 21.1404 723.859 21.709 724.235 22.2486C724.58 22.7413 724.959 23.326 725.415 23.7213C725.581 23.9036 725.753 24.0804 725.928 24.2537L726.065 24.3872C726.235 24.5533 726.408 24.7157 726.59 24.8763L726.61 24.8944L726.615 24.898C726.816 25.0731 727.02 25.2409 727.229 25.4051L727.37 25.5134C727.585 25.6807 727.806 25.8419 728.03 25.9971C728.126 26.0639 728.225 26.1271 728.321 26.1902C728.368 26.2209 728.413 26.2534 728.462 26.2823C728.64 26.3974 728.821 26.5081 729.005 26.6143C729.142 26.6938 729.285 26.7714 729.425 26.849C729.472 26.876 729.525 26.9013 729.573 26.9266C729.673 26.9771 729.768 27.0294 729.868 27.0764C730.085 27.1838 730.305 27.2867 730.526 27.385L730.66 27.4409C730.828 27.5113 730.996 27.5799 731.167 27.6449L731.378 27.7243C731.533 27.782 731.687 27.8326 731.84 27.8849L732.051 27.9517C732.27 28.0203 732.49 28.1051 732.719 28.1448C744.551 30.1048 747.28 20.9961 747.28 20.9961C744.818 24.5406 740.05 26.2335 734.962 24.9124C734.509 24.7951 734.061 24.6553 733.622 24.4937L733.409 24.4161C733.194 24.3342 732.982 24.247 732.771 24.1544C732.562 24.0632 732.355 23.9676 732.151 23.8675C732.048 23.8169 731.947 23.7628 731.844 23.7105L731.665 23.6184C731.338 23.4408 731.018 23.2524 730.703 23.0535L730.559 22.9579C730.184 22.7139 729.822 22.4519 729.472 22.1728C727.245 20.4149 725.478 18.011 724.639 15.2875C723.758 12.4613 723.95 9.29026 725.473 6.71484" fill="#B4B4B4"/>
<path d="M731.876 6.49275C730.524 8.48162 730.391 10.9488 731.328 13.1452C732.317 15.4769 734.343 17.3034 736.708 18.1715C736.847 18.2235 736.988 18.2711 737.13 18.3141C737.269 18.3574 737.404 18.4097 737.55 18.435C744.084 19.6965 745.854 15.0835 746.325 14.4031C744.773 16.6392 742.163 17.1752 738.965 16.3974C738.383 16.2433 737.815 16.0354 737.271 15.7765C736.702 15.5019 736.161 15.1725 735.655 14.7929C732.795 12.62 731.012 8.4744 732.883 5.09766" fill="#B4B4B4"/>
<g clip-path="url(#clip2)">
<path d="M869.378 30.6556C869.358 30.6962 869.337 30.7287 869.378 30.6556V30.6556ZM886.238 24.7675C884.877 24.7675 883.534 25.0788 882.313 25.6812C881.914 24.8758 881.501 24.1719 881.433 23.644C881.352 23.0282 881.264 22.6627 881.359 21.9318C881.453 21.2008 881.88 20.1653 881.873 20.0909C881.866 20.0164 881.778 19.6442 880.905 19.6374C880.032 19.6307 879.281 19.8066 879.193 20.0367C879.038 20.4572 878.918 20.8895 878.834 21.3294C878.678 22.1213 877.089 24.9503 876.189 26.4257C875.891 25.8504 875.641 25.3428 875.587 24.9367C875.506 24.3208 875.418 23.9554 875.512 23.2244C875.607 22.4935 876.034 21.458 876.027 21.3836C876.02 21.3091 875.932 20.9369 875.06 20.9301C874.189 20.9233 873.436 21.0993 873.348 21.3294C873.26 21.5595 873.165 22.101 872.989 22.6221C872.813 23.1432 870.695 27.8537 870.141 29.0787C869.857 29.7013 869.614 30.2022 869.438 30.5406C869.41 30.5947 869.39 30.6285 869.377 30.6556C869.397 30.6218 869.41 30.5879 869.41 30.6015C869.262 30.8925 869.174 31.0549 869.174 31.0549V31.0617C869.059 31.2783 868.93 31.4745 868.869 31.4745C868.828 31.4745 868.74 30.906 868.889 30.1277C869.207 28.4899 869.959 25.9451 869.952 25.8572C869.945 25.8098 870.094 25.3699 869.458 25.133C868.842 24.9096 868.619 25.2819 868.564 25.2819C868.51 25.2819 868.47 25.4172 868.47 25.4172C868.47 25.4172 869.153 22.5476 867.157 22.5476C865.911 22.5476 864.179 23.9148 863.327 25.1533C862.793 25.4443 861.635 26.0737 860.417 26.7438L859.016 27.5153C858.982 27.4815 858.955 27.4476 858.922 27.4138C856.499 24.8284 852.026 23.0011 852.216 19.5291C852.284 18.2635 852.723 14.9405 860.817 10.9068C867.449 7.60406 872.751 8.51097 873.665 10.5278C874.978 13.4042 870.829 18.7576 863.942 19.5291C861.316 19.8202 859.937 18.805 859.592 18.426C859.233 18.0267 859.179 18.0064 859.043 18.0808C858.82 18.2026 858.962 18.5546 859.043 18.7644C859.246 19.299 860.092 20.2465 861.534 20.7203C862.8 21.1331 865.878 21.3633 869.599 19.9217C873.78 18.3109 877.035 13.8238 876.08 10.0676C875.108 6.25048 868.778 4.99841 862.794 7.12354C859.227 8.38914 855.371 10.3789 852.598 12.971C849.302 16.0572 848.775 18.7441 848.992 19.8675C849.763 23.8539 855.257 26.4527 857.456 28.3748L857.151 28.544C856.048 29.0922 851.86 31.285 850.811 33.5997C849.626 36.2256 851.007 38.1071 851.913 38.3643C854.742 39.1494 857.637 37.7349 859.194 35.4135C860.75 33.0921 860.561 30.06 859.843 28.6794C859.837 28.6591 859.823 28.6455 859.816 28.6252C860.628 28.1442 861.447 27.6749 862.273 27.2175C862.002 27.9484 861.806 28.8283 861.705 30.1006C861.583 31.5896 862.199 33.5184 862.997 34.2765C863.349 34.6081 863.774 34.6149 864.039 34.6149C864.973 34.6149 865.393 33.8433 865.86 32.9229C866.435 31.7994 866.943 30.4932 866.943 30.4932C866.943 30.4932 866.307 34.026 868.046 34.026C868.682 34.026 869.318 33.2071 869.603 32.7875V32.7943C869.603 32.7943 869.616 32.7672 869.65 32.7131C869.718 32.6115 869.752 32.5506 869.752 32.5506V32.5303C870.009 32.0904 870.57 31.082 871.416 29.4171C872.513 27.2649 873.561 24.578 873.561 24.578C873.662 25.1682 873.803 25.7516 873.98 26.3241C874.17 26.9671 874.569 27.671 874.887 28.3545C874.63 28.7065 874.474 28.9095 874.474 28.9095C874.474 28.9149 874.477 28.919 874.481 28.923C874.278 29.1937 874.048 29.4848 873.811 29.769C872.946 30.7977 871.916 31.9754 871.781 32.3138C871.618 32.7131 871.659 33.0109 871.97 33.241C872.2 33.4169 872.606 33.444 873.033 33.4102C873.811 33.356 874.359 33.1665 874.623 33.0447C875.11 32.8703 875.57 32.6288 875.99 32.3273C876.836 31.7046 877.351 30.8113 877.303 29.6337C877.276 28.9839 877.066 28.3342 876.809 27.7251C876.884 27.6168 876.965 27.5018 877.039 27.3867C877.92 26.0726 878.714 24.7021 879.415 23.284C879.516 23.8742 879.656 24.4576 879.834 25.0301C879.997 25.5783 880.315 26.1807 880.606 26.7695C879.347 27.7914 878.569 28.9758 878.299 29.7541C877.799 31.1957 878.191 31.8454 878.929 31.9943C879.261 32.062 879.734 31.9063 880.086 31.7574C880.609 31.5828 881.101 31.3297 881.547 31.0062C882.393 30.3835 883.212 29.5105 883.156 28.3261C883.136 27.7914 882.987 27.2568 882.791 26.7424C883.853 26.2957 885.234 26.0521 886.994 26.2551C890.762 26.695 891.5 29.0503 891.357 30.0316C891.215 31.013 890.424 31.5612 890.16 31.7236C889.896 31.886 889.814 31.9469 889.835 32.0688C889.869 32.2447 889.99 32.238 890.214 32.1973C890.525 32.1432 892.19 31.3987 892.264 29.5782C892.373 27.2771 890.16 24.7459 886.241 24.7662L886.238 24.7675ZM857.192 34.5607C855.946 35.9211 854.202 36.4354 853.45 36.0023C852.645 35.5339 852.963 33.532 854.498 32.0823C855.432 31.2025 856.637 30.3903 857.435 29.8895C857.618 29.7812 857.882 29.6188 858.207 29.4225C858.233 29.4056 858.26 29.3898 858.288 29.3751C858.349 29.3345 858.417 29.3007 858.484 29.2601C859.045 31.3175 858.505 33.1313 857.192 34.5594V34.5607ZM866.285 28.3748C865.852 29.4374 864.94 32.1446 864.383 32.0024C863.91 31.8806 863.618 29.8164 864.289 27.786C864.627 26.7641 865.344 25.5458 865.771 25.0721C866.454 24.3073 867.205 24.0637 867.381 24.3682C867.618 24.7675 866.556 27.7116 866.285 28.3748ZM873.797 31.9618C873.615 32.0566 873.446 32.1175 873.364 32.0701C873.303 32.0363 873.439 31.9077 873.439 31.9077C873.439 31.9077 874.379 30.8993 874.752 30.439C874.968 30.1683 875.219 29.8502 875.489 29.4983C875.489 29.5321 875.496 29.566 875.496 29.6066C875.488 30.818 874.324 31.637 873.796 31.9618H873.797ZM879.591 30.6421C879.455 30.5473 879.476 30.2292 879.929 29.2411C880.105 28.8553 880.511 28.2056 881.215 27.583C881.295 27.8185 881.338 28.0649 881.344 28.3139C881.337 29.8367 880.247 30.4052 879.591 30.6421Z" fill="#B4B4B4"/>
</g>
<g clip-path="url(#clip3)">
<path d="M33.8941 114.949C31.4194 104.91 25.5725 101.618 24.9443 100.356C24.2543 99.4615 23.5113 97.7695 23.5113 97.7695C23.5039 97.8047 23.5039 97.8264 23.4966 97.8616V97.8832C23.4966 97.9117 23.4892 97.9252 23.4892 97.9536V97.982H23.4818V98.0727H23.4745C23.4745 98.0863 23.4745 98.1079 23.4671 98.1147V98.1567C23.4671 98.1702 23.4671 98.1851 23.4598 98.1918V98.227C23.4598 98.2487 23.4598 98.269 23.4524 98.2839V98.2907C23.4511 98.3217 23.4462 98.3526 23.4377 98.3827V98.3962C23.4304 98.403 23.4304 98.4098 23.4304 98.4179V98.4463H23.423V98.4883H23.4156V98.5167H23.4009V98.5587H23.3936V98.5939H23.3862V98.6223H23.3789V98.6507H23.3715V98.6791H23.3641V98.7076H23.3568V98.7292H23.3494V98.7576H23.3421V98.7861H23.3347C23.3274 98.7861 23.3274 98.7928 23.3274 98.7928V98.8064L23.32 98.8199C23.32 98.8334 23.3126 98.8483 23.3053 98.8619C23.2979 98.8686 23.2979 98.8686 23.2979 98.8754V98.8889H23.2906V98.9025H23.2759V98.9377H23.2612V98.9593H23.2538V98.9661H23.2464V98.9796H23.2391V99.0013H23.2317V99.0148H23.217V99.0365H23.2097V99.05H23.2023V99.0636H23.1949V99.0852H23.1876V99.0988H23.1802V99.1055H23.1729V99.1191H23.1582V99.1407H23.1508V99.1475H23.1435V99.161H23.1361V99.1827H23.1287V99.1894H23.1214V99.203H23.114V99.2097H23.1067V99.2314H23.092V99.2382H23.0846V99.2517H23.0772V99.2585H23.0699V99.272H23.0625V99.2855C23.0552 99.2855 23.0552 99.2923 23.0552 99.2923V99.2991H23.0478L23.0243 99.3343C23.0243 99.3343 23.0096 99.3478 23.0096 99.3559C23.0022 99.3559 23.0022 99.3627 23.0022 99.3627V99.3695H22.9949V99.3762H22.9875V99.3898H22.9728V99.3965H22.9654V99.4033H22.9581V99.4236H22.9507V99.4304H22.9434V99.4371H22.936V99.4507H22.9286V99.4371H22.9139V99.4439H22.9066V99.4575H22.8992V99.471H22.8919V99.4778H22.8845V99.4845H22.8771V99.4913H22.8698V99.5048H22.8551V99.5116H22.8477V99.5251H22.8404V99.5319H22.833V99.5387H22.8257V99.5603H22.8183V99.5671H22.8109V99.5739H22.8036V99.5806H22.7962V99.5874H22.7815V99.6009H22.7742V99.6077H22.7668V99.6145H22.7594V99.628H22.7521V99.6348H22.7374V99.6415H22.73V99.6483H22.7227V99.6618H22.7153V99.6754H22.708V99.6821H22.7006V99.6889H22.6859V99.6957H22.6785V99.7025H22.6712V99.716H22.6638V99.7228H22.6565V99.7363H22.6491V99.7431H22.6417V99.7498H22.6344V99.7566H22.627V99.7634H22.6123V99.7701C22.605 99.7701 22.605 99.7769 22.605 99.7769L22.5976 99.7837L22.5902 99.7904V99.804H22.5829V99.8107H22.5755V99.8175H22.5682V99.8243H22.5608L22.5461 99.8378V99.8446C22.5314 99.8513 22.5314 99.8581 22.5152 99.873C22.5152 99.873 22.5005 99.8865 22.4917 99.8865C22.4681 99.9001 22.4387 99.9285 22.4152 99.9502C22.4005 99.9569 22.3843 99.9718 22.3696 99.9786C22.3387 100.007 22.3078 100.027 22.2769 100.049C22.2313 100.091 22.1842 100.119 22.1312 100.161H22.1239L21.7634 100.451H21.756C21.4265 100.719 21.0351 101.064 20.5908 101.473L20.5525 101.508C17.8851 104.046 13.6787 109.34 13.2417 117.892C13.1961 118.597 13.2034 119.287 13.249 119.957V119.971C13.4639 123.341 14.6129 126.218 16.0533 128.558C16.6198 129.489 17.2406 130.335 17.8689 131.096C20.0302 133.719 22.2371 135.277 22.7962 135.658C23.6628 137.497 23.5848 140.67 23.5848 140.67L24.8487 141.057C24.8487 141.057 24.5883 137.99 24.9487 136.502C25.0635 136.043 25.3239 135.65 25.6314 135.311C25.8462 135.177 26.4597 134.768 27.1954 134.148C27.2336 134.113 27.2572 134.085 27.2881 134.05C30.2689 131.49 35.8407 125.188 33.9324 114.924L33.8941 114.949Z" fill="#B4B4B4"/>
</g>
<path d="M172.505 101.379C170.086 101.595 166.91 102.444 162.994 103.96C161.929 104.754 160.701 105.53 159.33 106.288V106.523C159.438 106.523 159.546 106.45 159.691 106.378C159.853 106.36 159.962 106.414 159.962 106.577L160.196 106.432L160.322 106.414L160.341 106.541C160.359 106.649 159.492 107.317 157.814 108.526L157.922 108.76H157.814L157.525 108.67C157.525 108.76 157.417 108.797 157.164 108.815L157.182 108.941L157.471 109.266C157.363 109.266 157.236 109.248 157.092 109.176C156.532 109.23 156.009 109.645 155.45 110.403L155.594 110.619C156.063 110.186 156.334 109.97 156.406 109.97L156.442 110.313C156.37 110.313 156.226 110.403 156.081 110.457L156.37 110.89C156.911 110.276 157.561 109.753 158.247 109.338C158.59 109.428 158.77 109.5 158.77 109.645L159.023 109.627C160.864 108.255 162.705 107.281 164.51 106.667L164.528 106.902C164.185 107.407 163.95 107.696 163.824 107.696C163.842 107.858 163.914 108.002 164.004 108.129C164.04 108.454 163.228 110.511 161.55 114.355C157.724 123.271 154.547 129.858 151.984 134.154C151.984 134.226 152.039 134.352 152.129 134.497C152.76 134.334 153.157 134.19 153.302 134.045L153.482 134.027L153.5 134.262L153.735 134.244L153.988 134.1C153.988 134.19 154.078 134.208 154.204 134.19L154.258 134.424C154.258 134.677 154.132 135.038 153.843 135.525C153.573 135.814 153.302 136.428 153.013 137.366V137.474H153.248C154.276 136.301 155.107 135.164 155.612 134.063C158.608 133.179 160.9 132.331 162.488 131.465C164.076 131.338 165.304 130.923 166.134 130.255L166.116 130.093L165.52 130.255H165.376L165.358 130.165C166.531 129.985 167.343 129.714 167.74 129.353C170.068 127.62 171.783 126.375 172.956 125.635C176.565 122.982 178.262 120.419 178.063 118.001C178.045 117.748 177.233 116.72 175.681 115.023C175.645 114.698 176.205 114.229 177.305 113.597L180.428 110.836C181.132 109.934 181.547 108.49 181.691 106.486L181.637 106.017C181.529 104.609 180.518 103.472 178.569 102.606C177.45 101.83 175.428 101.433 172.505 101.379ZM176.295 102.949C178.623 103.039 179.814 103.436 179.886 104.176L179.796 104.411L176.295 102.949ZM174.057 104.916C175.663 104.898 176.493 105.313 176.584 106.216L176.764 106.198V105.602L177.017 105.584C177.666 105.891 177.955 106.324 177.991 106.793C178.027 107.154 177.847 107.551 177.468 108.039C177.305 108.057 177.215 107.948 177.197 107.696H176.944L176.872 108.436C175.862 110.006 175.068 110.818 174.598 110.872C174.165 111.45 173.894 111.756 173.786 111.756C173.461 112.153 172.559 112.839 171.079 113.778C170.592 113.832 168.769 114.518 165.647 115.889C165.484 115.817 165.322 115.817 165.141 115.817L165.123 115.601C165.087 115.131 165.286 114.572 165.737 113.868C165.935 112.587 166.242 111.847 166.531 111.666L169.148 105.783C169.13 105.422 169.671 105.151 170.826 104.988L171.205 104.916L171.241 105.259C172.36 105.079 173.064 104.988 173.335 104.988C173.588 104.934 173.84 104.916 174.057 104.916ZM179.471 105.512H179.543C179.76 105.53 179.977 105.891 180.211 106.631L180.229 106.847C180.103 106.865 179.868 106.486 179.525 105.728L179.471 105.512ZM164.708 109.248H164.816L164.852 109.591C164.744 109.609 164.582 109.771 164.401 110.096L164.383 109.861C164.6 109.591 164.708 109.374 164.708 109.248ZM157.218 109.428L157.236 109.5C157.146 109.5 157.02 109.609 156.911 109.681L156.749 109.699L156.713 109.5L157.218 109.428ZM163.661 111.702L163.697 112.208H163.571L163.517 111.72L163.661 111.702ZM163.354 112.55C163.318 112.948 163.228 113.11 163.03 113.164L162.903 113.182C163.048 112.911 163.12 112.731 163.102 112.587L163.354 112.55ZM162.831 113.778L162.849 113.886L162.633 114.265L162.398 114.283L162.38 114.175C162.615 114.157 162.723 114.012 162.705 113.796L162.831 113.778ZM162.326 114.915L162.236 115.474H162.109L162.073 114.915H162.326ZM175.086 115.312L175.591 115.619C175.609 115.817 175.537 115.871 175.374 115.889C175.221 115.777 175.04 115.709 174.851 115.691L174.833 115.33L175.086 115.312ZM165.033 116.647L165.087 116.864L164.6 116.918L164.582 116.72L165.033 116.647ZM173.154 117.459C173.479 117.622 173.66 117.784 173.678 117.911L173.696 118.019C173.353 118.055 173.064 117.875 172.775 117.496L173.154 117.459ZM177.053 117.838C177.323 117.947 177.45 118.073 177.468 118.181L177.54 119.102C177.432 119.355 177.323 119.481 177.197 119.481L177.053 117.838ZM170.736 117.947C171.999 117.929 172.974 118.218 173.624 118.849L173.678 119.318C173.154 120.961 172.487 121.917 171.801 122.206L168.642 124.715C166.296 126.267 165.033 127.025 164.852 127.043C161.117 129.1 158.788 130.165 157.886 130.255H157.742C157.868 129.822 159.528 126.411 162.741 120.022C164.131 119.896 166.405 119.228 169.437 118.037L170.177 117.965C170.375 117.965 170.556 117.947 170.736 117.947ZM166.152 118.687L166.17 118.795L165.665 118.831L165.647 118.723L166.152 118.687ZM158.283 126.303C158.121 127.115 157.958 127.548 157.814 127.548L157.76 127.422C157.724 127.007 157.904 126.646 158.283 126.303ZM168.967 126.808L168.985 127.025C169.003 127.133 168.642 127.422 167.921 127.945C165.827 128.974 164.6 129.678 164.239 130.039C161.965 130.833 160.846 131.32 160.864 131.501C158.843 132.313 157.525 132.89 156.911 133.251C156.749 133.269 156.532 133.197 156.244 133.071C156.226 132.674 156.388 132.331 156.803 132.06C157.146 132.06 157.489 132.06 157.814 132.223C158.193 132.06 158.843 131.826 159.763 131.591L159.745 131.356L159.005 131.428C159.095 131.302 159.817 130.977 161.171 130.418L161.55 130.382L161.568 130.49C160.936 130.544 160.575 130.743 160.521 131.086C160.521 131.212 160.575 131.302 160.738 131.284C161.189 130.959 161.423 130.797 161.423 130.743C162.326 130.58 164.852 129.245 168.967 126.808ZM157.561 127.891L157.579 127.999C157.597 128.162 157.507 128.252 157.345 128.27V128.162C157.327 128.017 157.399 127.927 157.561 127.891ZM163.228 129.353C163.354 129.299 163.445 129.353 163.445 129.497C163.156 129.533 162.596 129.768 161.766 130.255H161.64L161.622 130.021C162.217 129.967 162.741 129.732 163.174 129.353H163.228ZM157.724 131.158L157.742 131.302C157.633 131.302 157.525 131.356 157.363 131.447L157.128 131.465C157.11 131.356 157.182 131.248 157.345 131.212L157.724 131.158ZM154.836 132.602L155.107 132.71C154.998 133.432 154.8 133.793 154.439 133.865C154.206 133.721 153.936 133.652 153.663 133.666L153.627 133.324C153.609 133.179 153.699 133.089 153.879 133.053C154.024 133.035 154.114 133.143 154.132 133.378C154.565 132.854 154.8 132.602 154.836 132.602Z" fill="#B4B4B4"/>
<g clip-path="url(#clip4)">
<path fill-rule="evenodd" clip-rule="evenodd" d="M318.884 100.477H297.227C295.073 100.477 293.007 101.332 291.484 102.855C289.961 104.379 289.106 106.444 289.106 108.598V130.256C289.106 132.41 289.961 134.475 291.484 135.998C293.007 137.521 295.073 138.377 297.227 138.377H318.884C321.038 138.377 323.104 137.521 324.627 135.998C326.15 134.475 327.006 132.41 327.006 130.256V108.598C327.006 106.444 326.15 104.379 324.627 102.855C323.104 101.332 321.038 100.477 318.884 100.477ZM297.227 97.7695C294.355 97.7695 291.601 98.9104 289.57 100.941C287.539 102.972 286.398 105.726 286.398 108.598V130.256C286.398 133.128 287.539 135.882 289.57 137.913C291.601 139.943 294.355 141.084 297.227 141.084H318.884C321.756 141.084 324.511 139.943 326.542 137.913C328.572 135.882 329.713 133.128 329.713 130.256V108.598C329.713 105.726 328.572 102.972 326.542 100.941C324.511 98.9104 321.756 97.7695 318.884 97.7695H297.227Z" fill="#B4B4B4"/>
<path fill-rule="evenodd" clip-rule="evenodd" d="M309.509 130.256H300.102V107.367H309.303C313.6 107.367 316.188 109.557 316.188 113.079C316.188 115.472 314.428 117.614 312.173 117.996V118.266C315.267 118.583 317.327 120.787 317.327 123.77C317.327 127.798 314.393 130.256 309.509 130.256ZM303.656 110.38V117.059H307.874C311.014 117.059 312.649 115.9 312.649 113.729C312.649 111.617 311.109 110.38 308.478 110.38H303.656ZM308.794 127.243H303.656V119.866H308.589C311.935 119.866 313.697 121.12 313.697 123.515C313.697 125.941 312 127.243 308.794 127.243Z" fill="#B4B4B4"/>
</g>
<g clip-path="url(#clip5)">
<path d="M427.617 98.3125V140.542H470.932V98.3125H427.617ZM429.422 100.117H469.126V138.736H429.422V100.117ZM438.086 108.203C438.086 108.083 438.34 107.992 438.488 107.992C440.038 107.926 441.59 107.896 443.141 107.9C448.147 107.9 450.092 110.642 450.092 114.153C450.092 118.744 446.765 120.71 442.689 120.71C441.999 120.71 441.766 120.675 441.287 120.675V127.612C441.287 127.76 441.23 127.823 441.083 127.823H438.29C438.143 127.823 438.086 127.766 438.086 127.619V108.203ZM441.287 117.792C441.703 117.82 442.034 117.82 442.753 117.82C444.861 117.82 446.849 117.073 446.849 114.218C446.849 111.927 445.425 110.764 443.014 110.764C442.302 110.764 441.619 110.793 441.287 110.821V117.792ZM456.825 115.641C455.394 115.641 454.915 116.36 454.915 116.953C454.915 117.608 455.24 118.053 457.15 119.04C459.977 120.415 460.872 121.719 460.872 123.657C460.872 126.54 458.666 128.091 455.691 128.091C454.111 128.091 452.765 127.76 451.99 127.316C451.877 127.259 451.849 127.168 451.849 127.019V124.369C451.849 124.193 451.934 124.129 452.053 124.221C453.134 124.924 454.395 125.296 455.684 125.293C457.115 125.293 457.707 124.701 457.707 123.891C457.707 123.236 457.292 122.672 455.479 121.72C452.913 120.494 451.841 119.246 451.841 117.158C451.841 114.832 453.66 112.9 456.811 112.9C458.363 112.9 459.455 113.14 460.054 113.401C460.202 113.493 460.23 113.64 460.23 113.761V116.235C460.23 116.383 460.138 116.475 459.962 116.411C459.158 115.939 457.974 115.636 456.818 115.636L456.825 115.641Z" fill="#B4B4B4"/>
</g>
<g clip-path="url(#clip6)">
<path d="M568.836 102.236V120.988L574.25 124.116V111.612L585.079 117.866L595.908 111.612V117.866L585.079 124.116V130.367L595.908 136.617L612.151 127.241V114.738L606.736 117.866V124.116L595.908 130.367L590.493 127.241L601.322 120.988V102.236L585.079 111.612L568.836 102.236ZM612.151 102.236L606.736 105.358V111.612L612.151 108.486V102.234V102.236Z" fill="#B4B4B4"/>
</g>
<g clip-path="url(#clip7)">
<path d="M710.055 111.008V125.447H722.081V127.844H731.712V125.447H753.369V111.008H710.055ZM722.081 123.028H719.684V115.809H717.273V123.028H712.465V113.412H722.081V123.028ZM729.301 123.028V125.447H724.493V113.412H734.124V123.034H729.301V123.028ZM750.965 123.028H748.561V115.809H746.151V123.028H743.74V115.809H741.343V123.028H736.52V113.412H750.965V123.028ZM729.301 115.816H731.712V120.63H729.301V115.816Z" fill="#B4B4B4"/>
</g>
<path d="M878.944 113.412C880.507 113.365 881.991 112.711 883.08 111.589C884.17 110.466 884.779 108.963 884.779 107.399C884.779 105.835 884.17 104.333 883.08 103.21C881.991 102.088 880.507 101.434 878.944 101.387H866.917C865.354 101.434 863.87 102.088 862.781 103.21C861.691 104.333 861.082 105.835 861.082 107.399C861.082 108.963 861.691 110.466 862.781 111.589C863.87 112.711 865.354 113.365 866.917 113.412C865.34 113.439 863.837 114.085 862.731 115.21C861.625 116.335 861.006 117.849 861.006 119.426C861.006 121.004 861.625 122.518 862.731 123.643C863.837 124.768 865.34 125.413 866.917 125.441C865.348 125.479 863.855 126.13 862.759 127.253C861.663 128.377 861.049 129.884 861.049 131.454C861.049 133.024 861.663 134.532 862.759 135.655C863.855 136.779 865.348 137.429 866.917 137.468C868.512 137.467 870.041 136.833 871.169 135.705C872.296 134.577 872.93 133.047 872.931 131.453V113.412H878.944Z" fill="#B4B4B4"/>
<path d="M878.945 125.441C882.266 125.441 884.959 122.749 884.959 119.428C884.959 116.106 882.266 113.414 878.945 113.414C875.624 113.414 872.932 116.106 872.932 119.428C872.932 122.749 875.624 125.441 878.945 125.441Z" fill="#B4B4B4"/>
<path d="M1014.13 100.996C1003.67 100.992 995.199 109.46 995.199 119.912C995.199 128.178 1000.5 135.204 1007.88 137.784C1008.87 138.034 1008.72 137.327 1008.72 136.845V133.567C1002.98 134.239 1002.75 130.441 1002.36 129.806C1001.59 128.478 999.746 128.14 1000.3 127.505C1001.6 126.833 1002.94 127.674 1004.48 129.954C1005.6 131.608 1007.77 131.329 1008.88 131.054C1009.12 130.06 1009.64 129.172 1010.35 128.482C1004.4 127.416 1001.92 123.787 1001.92 119.473C1001.92 117.379 1002.61 115.454 1003.96 113.902C1003.1 111.343 1004.04 109.151 1004.17 108.826C1006.63 108.606 1009.18 110.585 1009.38 110.742C1010.78 110.365 1012.37 110.167 1014.16 110.167C1015.95 110.167 1017.55 110.374 1018.96 110.755C1019.44 110.391 1021.81 108.69 1024.09 108.898C1024.21 109.223 1025.13 111.364 1024.32 113.889C1025.69 115.446 1026.39 117.387 1026.39 119.485C1026.39 123.808 1023.9 127.442 1017.93 128.491C1018.44 128.993 1018.85 129.592 1019.12 130.253C1019.4 130.914 1019.54 131.624 1019.54 132.34V137.099C1019.58 137.479 1019.54 137.856 1020.18 137.856C1027.67 135.331 1033.06 128.254 1033.06 119.917C1033.06 109.46 1024.58 100.996 1014.13 100.996Z" fill="#B4B4B4"/>
<path d="M1026.64 33.3831L1011.6 42.1882V35.3282L1020.97 29.991L1026.64 33.3831ZM1027.67 32.418V13.9971L1022.17 17.289V29.1261L1027.67 32.418ZM995.246 33.3831L1010.28 42.1882V35.3282L1000.91 29.991L995.246 33.3831ZM994.215 32.418V13.9971L999.719 17.289V29.1261L994.215 32.418ZM994.859 12.8046L1010.28 3.77344V10.4074L1000.33 16.0762L994.859 12.8046ZM1027.02 12.8046L1011.6 3.77344V10.4074L1021.55 16.0762L1027.02 12.8046ZM1010.28 33.7716L1001.04 28.5048V18.0781L1010.28 23.6048V33.7716ZM1011.6 33.7716L1020.84 28.5048V18.0781L1011.6 23.6048V33.7716ZM1001.66 16.8734L1010.94 11.5931L1020.22 16.8734L1010.94 22.4218L1001.66 16.8734Z" fill="#B4B4B4"/>
<defs>
<clipPath id="clip0">
<rect width="43.3147" height="43.3147" fill="white" transform="translate(0.191406 0.679688)"/>
</clipPath>
<clipPath id="clip1">
<rect width="43.3147" height="43.3147" fill="white" transform="translate(566.512 0.679688)"/>
</clipPath>
<clipPath id="clip2">
<rect width="43.3147" height="43.3147" fill="white" transform="translate(848.949 0.679688)"/>
</clipPath>
<clipPath id="clip3">
<rect width="47.0812" height="43.3147" fill="white" transform="translate(0.191406 97.7695)"/>
</clipPath>
<clipPath id="clip4">
<rect width="43.3147" height="43.3147" fill="white" transform="translate(286.398 97.7695)"/>
</clipPath>
<clipPath id="clip5">
<rect width="43.3147" height="43.3147" fill="white" transform="translate(427.617 97.7695)"/>
</clipPath>
<clipPath id="clip6">
<rect width="43.3147" height="43.3147" fill="white" transform="translate(568.836 97.7695)"/>
</clipPath>
<clipPath id="clip7">
<rect width="43.3147" height="43.3147" fill="white" transform="translate(710.055 97.7695)"/>
</clipPath>
</defs>
</svg>
