<svg width="1036" height="144" viewBox="0 0 1036 144" fill="none" xmlns="http://www.w3.org/2000/svg">
<g clip-path="url(#clip0)">
<path d="M46.114 36.887C45.4836 37.1254 44.7878 37.1249 44.1577 36.8855C43.5277 36.6461 43.007 36.1844 42.694 35.5875L36.4675 26.9769L35.5651 25.7731L28.3406 35.5984C28.0464 36.1702 27.554 36.6153 26.9554 36.8505C26.3569 37.0857 25.6931 37.0948 25.0884 36.8761L34.3974 24.3871L25.7381 13.1054C26.3607 12.881 27.0417 12.878 27.6662 13.097C28.2908 13.3159 28.8209 13.7434 29.1672 14.3074L35.6211 23.0245L42.111 14.3435C42.4075 13.7818 42.9001 13.3487 43.495 13.1264C44.09 12.9041 44.7459 12.9082 45.338 13.1379L41.9775 17.5975L37.4258 23.5226C37.2994 23.6353 37.1983 23.7735 37.129 23.9281C37.0598 24.0827 37.024 24.2502 37.024 24.4196C37.024 24.5889 37.0598 24.7564 37.129 24.911C37.1983 25.0656 37.2994 25.2038 37.4258 25.3165L46.096 36.8888L46.114 36.887ZM2.80295 24.2319L3.56095 20.4869C5.64367 13.0819 14.1334 10.0012 19.9736 14.5853C23.3937 17.2726 24.2473 21.0771 24.0795 25.3653H4.81347C4.50125 33.0229 10.0275 37.6468 17.0932 35.2843C18.2386 34.872 19.2639 34.182 20.0771 33.2762C20.8904 32.3703 21.4663 31.2769 21.7531 30.0938C22.1267 28.8918 22.7422 28.6861 23.8719 29.0326C23.6837 30.4987 23.1654 31.9031 22.3561 33.1401C21.5467 34.3771 20.4674 35.4144 19.1994 36.1741C17.1048 37.3198 14.7015 37.7739 12.3333 37.4715C9.96507 37.1691 7.75309 36.1256 6.01365 34.4902C4.29375 32.5544 3.25428 30.1091 3.05381 27.5274C3.05381 27.1033 2.90943 26.7062 2.81197 26.3254C2.80319 25.6282 2.79897 24.9309 2.79934 24.2337L2.80295 24.2319ZM4.83693 23.7157H22.2603C22.152 18.1642 18.6489 14.2262 13.9763 14.1901C8.77496 14.1179 5.05351 17.9693 4.8243 23.6904L4.83693 23.7157Z" fill="#B4B4B4"/>
</g>
<path d="M165.355 26.8571C167.134 26.8571 168.576 25.4148 168.576 23.6356C168.576 21.8564 167.134 20.4141 165.355 20.4141C163.575 20.4141 162.133 21.8564 162.133 23.6356C162.133 25.4148 163.575 26.8571 165.355 26.8571Z" fill="#B4B4B4"/>
<path d="M156.334 30.0396L155.621 29.8573C150.326 28.52 147.289 26.246 147.289 23.6272C147.289 21.0067 150.328 18.7345 155.621 17.3971L156.334 17.2166L156.535 17.9223C157.07 19.7699 157.756 21.5704 158.585 23.306L158.738 23.6272L158.585 23.9485C157.755 25.6865 157.067 27.4877 156.535 29.3357L156.334 30.0396V30.0396ZM155.293 19.0395C151.27 20.1729 148.799 21.9019 148.799 23.6272C148.799 25.349 151.268 27.0798 155.293 28.2114C155.786 26.6448 156.381 25.1126 157.071 23.6272C156.376 22.1394 155.782 20.6067 155.293 19.0395V19.0395ZM174.373 30.0396L174.175 29.3321C173.638 27.4842 172.952 25.6831 172.123 23.9467L171.969 23.6272L172.123 23.3042C172.953 21.5698 173.637 19.7668 174.175 17.9187L174.373 17.2148L175.086 17.3953C180.383 18.7327 183.419 21.0049 183.419 23.6272C183.419 26.2478 180.381 28.52 175.086 29.8573L174.373 30.0396V30.0396ZM173.633 23.6272C174.355 25.1902 174.956 26.7278 175.415 28.2114C179.439 27.0798 181.91 25.349 181.91 23.6272C181.91 21.9019 179.441 20.1747 175.415 19.0395C174.922 20.6062 174.327 22.1388 173.633 23.6272V23.6272Z" fill="#B4B4B4"/>
<path d="M155.282 19.0339L155.084 18.3301C153.593 13.0818 154.044 9.3224 156.324 8.01213C158.553 6.72171 162.139 8.24675 165.894 12.1L166.407 12.6269L165.894 13.1521C164.56 14.5395 163.341 16.0327 162.249 17.6172L162.045 17.9095L161.691 17.9384C159.77 18.0893 157.865 18.3965 155.993 18.857L155.282 19.0339V19.0339ZM158.138 9.05529C157.733 9.05529 157.376 9.14372 157.074 9.31698C155.58 10.1779 155.317 13.1756 156.345 17.2219C157.953 16.8664 159.576 16.6119 161.211 16.4693C162.158 15.1267 163.19 13.8468 164.303 12.6378C161.951 10.3511 159.731 9.05529 158.138 9.05529V9.05529ZM172.57 39.7077C170.426 39.7077 167.672 38.0906 164.813 35.156L164.303 34.6308L164.813 34.1074C166.148 32.7179 167.367 31.2229 168.461 29.637L168.663 29.3482L169.013 29.3139C170.935 29.1657 172.841 28.8597 174.713 28.3989L175.425 28.2184L175.626 28.9241C177.109 34.1688 176.66 37.9336 174.384 39.2438C173.832 39.5571 173.205 39.7172 172.57 39.7077V39.7077ZM166.407 34.6182C168.757 36.9048 170.979 38.2025 172.57 38.2025C172.976 38.2025 173.334 38.1122 173.633 37.9408C175.13 37.0781 175.395 34.075 174.362 30.0286C172.756 30.386 171.132 30.6423 169.493 30.7848C168.551 32.1296 167.52 33.4102 166.407 34.6182V34.6182Z" fill="#B4B4B4"/>
<path d="M175.425 19.0329L174.712 18.8543C172.841 18.3923 170.935 18.0851 169.013 17.9356L168.663 17.905L168.461 17.6126C167.369 16.0272 166.149 14.5339 164.813 13.1476L164.302 12.6224L164.813 12.099C168.567 8.24758 172.151 6.72255 174.384 8.01116C176.661 9.32323 177.114 13.0826 175.626 18.3291L175.425 19.0329ZM169.493 16.4684C171.215 16.6218 172.846 16.8798 174.362 17.2209C175.393 13.1746 175.129 10.1769 173.633 9.31421C172.146 8.45333 169.347 9.77082 166.407 12.6368C167.518 13.846 168.551 15.1238 169.493 16.4684ZM158.137 39.7067C157.502 39.7158 156.876 39.5557 156.323 39.2429C154.044 37.9326 153.593 34.1696 155.082 28.9231L155.277 28.2175L155.99 28.3979C157.729 28.8365 159.646 29.1451 161.689 29.313L162.039 29.3473L162.243 29.636C163.333 31.2206 164.553 32.7168 165.889 34.1065L166.401 34.6298L165.889 35.155C163.032 38.0914 160.278 39.7067 158.137 39.7067V39.7067ZM156.345 30.0295C155.316 34.0758 155.58 37.0789 157.074 37.9416C158.563 38.7899 161.353 37.4814 164.302 34.6172C163.19 33.4078 162.158 32.128 161.211 30.7857C159.574 30.6409 157.949 30.3883 156.345 30.0295V30.0295Z" fill="#B4B4B4"/>
<path d="M165.355 30.9768C164.115 30.9768 162.842 30.9245 161.565 30.818L161.211 30.7873L161.007 30.4949C160.286 29.4588 159.609 28.3937 158.975 27.3023C158.346 26.2079 157.761 25.0887 157.222 23.9472L157.071 23.6278L157.222 23.3047C157.762 22.1641 158.345 21.0451 158.975 19.9514C159.601 18.8758 160.285 17.8001 161.007 16.757L161.211 16.4682L161.565 16.4357C164.086 16.2246 166.62 16.2246 169.141 16.4357L169.491 16.47L169.695 16.7588C171.139 18.832 172.406 21.0222 173.485 23.3065L173.635 23.6296L173.485 23.949C172.409 26.2349 171.142 28.4253 169.695 30.4968L169.491 30.7891L169.141 30.8198C167.867 30.9227 166.593 30.9768 165.355 30.9768V30.9768ZM162.045 29.3453C164.274 29.5131 166.436 29.5131 168.663 29.3453C169.906 27.5247 171.011 25.6135 171.969 23.6278C171.015 21.6403 169.909 19.7288 168.663 17.9102C166.46 17.7406 164.248 17.7406 162.045 17.9102C160.797 19.7282 159.692 21.6397 158.738 23.6278C159.698 25.6124 160.803 27.5234 162.045 29.3453V29.3453Z" fill="#B4B4B4"/>
<path d="M308.442 4.6875C307.883 4.6875 307.324 4.82812 306.842 5.10937L291.669 14.0469C290.689 14.625 290.076 15.7188 290.076 16.875V33.0938C290.076 34.2656 290.689 35.3437 291.669 35.9219L295.65 38.2656C297.579 39.2344 298.268 39.2344 299.141 39.2344C302.005 39.2344 303.643 37.4688 303.643 34.4063V17.6719C303.643 17.5517 303.596 17.4364 303.513 17.3515C303.43 17.2665 303.317 17.2188 303.199 17.2188H301.285C301.226 17.2179 301.168 17.2291 301.114 17.2515C301.06 17.274 301.01 17.3073 300.969 17.3496C300.928 17.3918 300.895 17.4421 300.873 17.4975C300.851 17.5528 300.84 17.6121 300.841 17.6719V34.3906C300.841 35.7656 299.447 37.1094 297.196 35.9688L293.031 33.5156C292.957 33.4748 292.894 33.4139 292.851 33.3396C292.808 33.2652 292.786 33.1802 292.786 33.0938V16.8906C292.786 16.7031 292.878 16.5469 293.031 16.4531L308.206 7.51562C308.277 7.4698 308.359 7.44547 308.444 7.44547C308.528 7.44547 308.61 7.4698 308.681 7.51562L323.856 16.4531C324.009 16.5469 324.101 16.7031 324.101 16.875V33.0938C324.101 33.2656 324.009 33.4375 323.871 33.5156L308.681 42.4688C308.607 42.5071 308.526 42.5272 308.444 42.5272C308.361 42.5272 308.28 42.5071 308.206 42.4688L304.301 40.1094C304.249 40.07 304.187 40.0463 304.122 40.0407C304.057 40.0352 303.992 40.0482 303.934 40.0781C302.847 40.7031 302.648 40.7812 301.637 41.1406C301.392 41.2187 301.009 41.375 301.775 41.8125L306.843 44.875C307.333 45.1562 307.885 45.3125 308.436 45.3125C309.002 45.3125 309.554 45.1562 310.044 44.875L325.234 35.9219C326.214 35.3437 326.826 34.2656 326.826 33.0938V16.8906C326.826 15.7188 326.214 14.6406 325.234 14.0625L310.044 5.10937C309.56 4.82812 309.002 4.6875 308.442 4.6875V4.6875ZM312.524 17.1969C308.191 17.1969 305.603 19.0719 305.603 22.1969C305.603 25.5875 308.176 26.5219 312.341 26.9437C317.317 27.4437 317.7 28.1969 317.7 29.1969C317.7 30.9156 316.337 31.65 313.137 31.65C309.11 31.65 308.221 30.6172 307.931 28.5859C307.916 28.481 307.864 28.3852 307.785 28.3162C307.706 28.2473 307.606 28.2099 307.502 28.2109H305.526C305.413 28.2109 305.304 28.257 305.223 28.3391C305.143 28.4211 305.098 28.5324 305.098 28.6484C305.098 31.2578 306.491 34.3672 313.137 34.3672C317.945 34.3672 320.701 32.4297 320.701 29.0547C320.701 25.7109 318.481 24.8203 313.826 24.1797C309.094 23.5547 308.62 23.2266 308.62 22.1016C308.62 21.1641 309.033 19.9297 312.524 19.9297C315.633 19.9297 316.796 20.6172 317.271 22.7578C317.317 22.9609 317.486 23.1172 317.7 23.1172H319.675C319.798 23.1172 319.905 23.0547 319.997 22.9609C320.038 22.9153 320.07 22.8608 320.088 22.8013C320.107 22.7419 320.112 22.679 320.104 22.6172C319.798 18.9297 317.394 17.1953 312.524 17.1953V17.1969Z" fill="#B4B4B4"/>
<path d="M436.338 7H473.088V43H436.338V7ZM470.076 34.414C469.809 32.772 468.716 31.392 465.478 30.104C464.351 29.586 463.1 29.228 462.724 28.396C462.585 27.9 462.565 27.632 462.655 27.338C462.885 26.37 464.057 26.08 464.976 26.348C465.574 26.528 466.126 26.978 466.471 27.7C468.053 26.686 468.053 26.686 469.157 26.012C468.743 25.384 468.537 25.11 468.261 24.84C467.295 23.784 466.009 23.244 463.921 23.29L462.843 23.424C461.807 23.672 460.819 24.214 460.223 24.932C458.477 26.868 458.982 30.242 461.095 31.64C463.184 33.17 466.242 33.506 466.632 34.946C466.999 36.702 465.301 37.264 463.62 37.062C462.381 36.79 461.691 36.184 460.934 35.058L458.132 36.634C458.453 37.352 458.82 37.668 459.372 38.298C462.036 40.93 468.698 40.796 469.892 36.79C469.935 36.656 470.26 35.734 470.007 34.316L470.076 34.414V34.414ZM456.321 23.546H452.879C452.879 26.452 452.865 29.342 452.865 32.254C452.865 34.102 452.961 35.798 452.653 36.32C452.148 37.354 450.844 37.222 450.254 37.038C449.647 36.746 449.339 36.34 448.982 35.756C448.886 35.6 448.814 35.464 448.788 35.464L445.995 37.152C446.462 38.098 447.144 38.91 448.024 39.426C449.333 40.192 451.091 40.44 452.932 40.036C454.133 39.696 455.168 38.998 455.705 37.918C456.489 36.524 456.321 34.812 456.315 32.9C456.332 29.818 456.315 26.734 456.315 23.63L456.321 23.546Z" fill="#B4B4B4"/>
<path d="M578.72 6L581.769 40.2L595.454 44L609.174 40.1952L612.229 6H578.722H578.72ZM605.59 17.1863H589.54L589.923 21.4826H605.21L604.059 34.3599L595.454 36.7444L586.861 34.3599L586.275 27.7716H590.485L590.785 31.1204L595.456 32.3791L595.466 32.3767L600.14 31.1156L600.624 25.6769H586.087L584.956 12.992H605.968L605.593 17.1863H605.59Z" fill="#B4B4B4"/>
<path d="M717.773 15.8576C714.603 20.411 714.997 26.3361 717.419 31.1747L717.596 31.5176C717.634 31.5898 717.67 31.6656 717.709 31.736C717.731 31.7793 717.756 31.8208 717.78 31.8605C717.894 32.0705 718.013 32.2775 718.137 32.4814L718.269 32.698C718.392 32.8992 718.519 33.0977 718.65 33.2935C718.779 33.488 718.912 33.6799 719.049 33.8693L719.114 33.9577C719.227 34.1165 719.346 34.2735 719.467 34.4287L719.601 34.5984L719.929 35.0009L720.054 35.1488C720.202 35.3239 720.355 35.499 720.509 35.6704L720.518 35.6794C720.525 35.6867 720.53 35.6903 720.536 35.6993C720.686 35.8635 720.843 36.026 720.998 36.1884L721.148 36.3382L721.518 36.701L721.669 36.8453C721.835 37.0024 722.005 37.1558 722.176 37.3074L722.184 37.3146L722.272 37.3886C722.422 37.5203 722.577 37.6503 722.732 37.7766L722.922 37.9282C723.253 38.1941 723.593 38.4493 723.941 38.6934C723.994 38.7313 724.044 38.7692 724.098 38.8053L724.142 38.836C724.279 38.9317 724.42 39.0219 724.559 39.1121C724.618 39.1518 724.678 39.1934 724.741 39.2331C725.259 39.5639 725.793 39.8705 726.34 40.1517C726.457 40.2131 726.573 40.2744 726.692 40.334L726.773 40.3737L726.917 40.4441C727.102 40.5307 727.287 40.6191 727.473 40.7022L727.592 40.7545C727.807 40.8483 728.024 40.9386 728.242 41.0234L728.401 41.0866C728.63 41.1754 728.859 41.2608 729.09 41.3428C729.316 41.4223 729.545 41.4963 729.776 41.5666L729.942 41.6172C730.173 41.6876 730.404 41.7706 730.646 41.8157C745.972 44.6095 750.423 32.6077 750.423 32.6077C746.683 37.477 740.049 38.762 733.761 37.3326C733.523 37.2785 733.29 37.2045 733.057 37.1359L732.882 37.0836C732.422 36.9414 731.968 36.7825 731.52 36.6071L731.352 36.5421C731.135 36.4573 730.92 36.3671 730.709 36.275L730.581 36.2191C730.399 36.1374 730.218 36.0531 730.038 35.9664L729.881 35.8906C729.74 35.822 729.601 35.748 729.462 35.6776C729.37 35.6289 729.274 35.582 729.182 35.5297C729.013 35.439 728.846 35.3452 728.681 35.2481L728.511 35.1543C728.29 35.0242 728.072 34.89 727.856 34.7518L727.679 34.6345C727.522 34.5333 727.366 34.4298 727.212 34.3241L727.062 34.2176C726.914 34.1129 726.766 34.0082 726.621 33.8999C726.421 33.75 726.224 33.5966 726.029 33.4397L725.851 33.2971C725.685 33.16 725.519 33.0228 725.356 32.8802C725.161 32.7104 724.969 32.5371 724.781 32.3605C724.73 32.3135 724.681 32.2684 724.634 32.2197C724.507 32.0999 724.382 31.9777 724.259 31.8533L724.113 31.7071C723.957 31.5479 723.804 31.3861 723.654 31.2216L723.633 31.2C723.475 31.0263 723.319 30.85 723.167 30.6712L723.046 30.525C722.89 30.3397 722.737 30.1514 722.588 29.9601C722.456 29.79 722.326 29.6179 722.2 29.4439C718.709 24.6829 717.457 18.1153 720.245 12.7227" fill="#B4B4B4"/>
<path d="M727.607 12.0172C725.315 15.3145 725.441 19.729 727.228 23.2159C727.527 23.8006 727.865 24.3691 728.24 24.9087C728.585 25.4014 728.964 25.9862 729.421 26.3814C729.587 26.5637 729.758 26.7406 729.933 26.9138L730.07 27.0474C730.24 27.2134 730.413 27.3759 730.595 27.5365L730.615 27.5545L730.621 27.5582C730.821 27.7332 731.025 27.9011 731.234 28.0653L731.375 28.1736C731.591 28.3408 731.811 28.5021 732.036 28.6573C732.131 28.724 732.231 28.7872 732.326 28.8504C732.373 28.8811 732.418 28.9135 732.467 28.9424C732.645 29.0576 732.826 29.1683 733.01 29.2745C733.147 29.3539 733.29 29.4315 733.431 29.5091C733.478 29.5362 733.53 29.5615 733.579 29.5867C733.678 29.6373 733.774 29.6896 733.873 29.7365C734.09 29.844 734.31 29.9469 734.532 30.0451L734.665 30.1011C734.833 30.1715 735.001 30.2401 735.172 30.305L735.384 30.3844C735.539 30.4422 735.692 30.4927 735.846 30.5451L736.057 30.6118C736.275 30.6804 736.495 30.7652 736.724 30.8049C748.557 32.7649 751.285 23.6562 751.285 23.6562C748.824 27.2008 744.056 28.8937 738.968 27.5726C738.514 27.4552 738.067 27.3155 737.627 27.1539L737.414 27.0763C737.199 26.9944 736.987 26.9071 736.777 26.8146C736.568 26.7234 736.361 26.6277 736.156 26.5276C736.053 26.4771 735.952 26.4229 735.849 26.3706L735.671 26.2786C735.344 26.1009 735.023 25.9125 734.709 25.7137L734.564 25.618C734.19 25.3741 733.827 25.1121 733.478 24.8329C731.251 23.0751 729.484 20.6711 728.645 17.9477C727.764 15.1214 727.955 11.9504 729.478 9.375" fill="#B4B4B4"/>
<path d="M735.882 9.15291C734.53 11.1418 734.396 13.6089 735.333 15.8053C736.322 18.1371 738.349 19.9635 740.713 20.8316C740.852 20.8837 740.993 20.9312 741.135 20.9742C741.274 21.0175 741.41 21.0699 741.556 21.0951C748.089 22.3567 749.86 17.7437 750.331 17.0633C748.779 19.2994 746.169 19.8354 742.971 19.0575C742.388 18.9034 741.821 18.6956 741.276 18.4367C740.707 18.1621 740.166 17.8326 739.661 17.4531C736.8 15.2801 735.017 11.1346 736.889 7.75781" fill="#B4B4B4"/>
<g clip-path="url(#clip1)">
<path d="M872.74 33.3158C872.719 33.3564 872.699 33.3889 872.74 33.3158V33.3158ZM889.6 27.4277C888.238 27.4277 886.896 27.739 885.675 28.3413C885.275 27.536 884.862 26.8321 884.795 26.3042C884.714 25.6883 884.626 25.3229 884.72 24.5919C884.815 23.861 885.242 22.8255 885.235 22.751C885.228 22.6766 885.14 22.3044 884.267 22.2976C883.394 22.2908 882.643 22.4668 882.555 22.6969C882.4 23.1173 882.28 23.5496 882.196 23.9896C882.04 24.7814 880.451 27.6104 879.551 29.0858C879.253 28.5105 879.003 28.003 878.949 27.5969C878.867 26.981 878.779 26.6155 878.874 25.8846C878.969 25.1537 879.395 24.1182 879.389 24.0437C879.382 23.9693 879.294 23.597 878.422 23.5903C877.55 23.5835 876.798 23.7595 876.71 23.9896C876.622 24.2197 876.527 24.7611 876.351 25.2822C876.175 25.8034 874.057 30.5139 873.503 31.7388C873.219 32.3615 872.975 32.8623 872.799 33.2007C872.772 33.2549 872.752 33.2887 872.738 33.3158C872.759 33.2819 872.772 33.2481 872.772 33.2616C872.623 33.5527 872.535 33.7151 872.535 33.7151V33.7218C872.42 33.9384 872.292 34.1347 872.231 34.1347C872.19 34.1347 872.102 33.5662 872.251 32.7879C872.569 31.15 873.32 28.6053 873.314 28.5173C873.307 28.4699 873.456 28.03 872.82 27.7931C872.204 27.5698 871.98 27.942 871.926 27.942C871.872 27.942 871.832 28.0774 871.832 28.0774C871.832 28.0774 872.515 25.2078 870.519 25.2078C869.273 25.2078 867.541 26.5749 866.689 27.8134C866.155 28.1045 864.997 28.7339 863.779 29.4039L862.378 30.1755C862.344 30.1416 862.317 30.1078 862.283 30.0739C859.86 27.4886 855.388 25.6612 855.578 22.1893C855.645 20.9237 856.085 17.6007 864.178 13.567C870.811 10.2642 876.113 11.1711 877.027 13.188C878.34 16.0643 874.191 21.4178 867.304 22.1893C864.678 22.4803 863.299 21.4651 862.953 21.0861C862.595 20.6868 862.541 20.6665 862.405 20.741C862.182 20.8628 862.324 21.2147 862.405 21.4245C862.608 21.9592 863.454 22.9067 864.896 23.3805C866.161 23.7933 869.239 24.0234 872.96 22.5818C877.142 20.9711 880.397 16.4839 879.441 12.7277C878.47 8.91063 872.14 7.65857 866.156 9.7837C862.589 11.0493 858.733 13.0391 855.959 15.6312C852.663 18.7174 852.137 21.4042 852.353 22.5277C853.125 26.514 858.619 29.1129 860.817 31.035L860.513 31.2042C859.41 31.7524 855.222 33.9452 854.173 36.2598C852.988 38.8858 854.369 40.7673 855.274 41.0244C858.103 41.8095 860.999 40.395 862.555 38.0736C864.112 35.7522 863.923 32.7202 863.205 31.3395C863.198 31.3192 863.185 31.3057 863.178 31.2854C863.99 30.8044 864.809 30.3351 865.635 29.8777C865.364 30.6086 865.168 31.4884 865.066 32.7608C864.945 34.2497 865.56 36.1786 866.359 36.9366C866.711 37.2682 867.136 37.275 867.401 37.275C868.335 37.275 868.755 36.5035 869.222 35.583C869.797 34.4596 870.305 33.1533 870.305 33.1533C870.305 33.1533 869.669 36.6862 871.408 36.6862C872.044 36.6862 872.68 35.8673 872.964 35.4477V35.4544C872.964 35.4544 872.978 35.4274 873.012 35.3732C873.08 35.2717 873.113 35.2108 873.113 35.2108V35.1905C873.371 34.7506 873.932 33.7422 874.778 32.0772C875.875 29.925 876.922 27.2382 876.922 27.2382C877.024 27.8283 877.165 28.4117 877.342 28.9843C877.531 29.6273 877.931 30.3311 878.249 31.0147C877.992 31.3666 877.836 31.5696 877.836 31.5696C877.836 31.5751 877.839 31.5791 877.843 31.5832C877.64 31.8539 877.41 32.1449 877.173 32.4292C876.308 33.4579 875.278 34.6355 875.142 34.9739C874.98 35.3732 875.021 35.671 875.332 35.9011C875.562 36.0771 875.968 36.1042 876.394 36.0703C877.173 36.0162 877.721 35.8267 877.985 35.7048C878.472 35.5304 878.932 35.289 879.352 34.9875C880.198 34.3648 880.712 33.4714 880.665 32.2938C880.638 31.6441 880.428 30.9944 880.171 30.3853C880.245 30.277 880.327 30.1619 880.401 30.0469C881.282 28.7327 882.075 27.3622 882.777 25.9441C882.878 26.5343 883.018 27.1177 883.196 27.6903C883.359 28.2385 883.677 28.8408 883.968 29.4296C882.709 30.4516 881.931 31.636 881.661 32.4143C881.16 33.8559 881.553 34.5056 882.291 34.6545C882.622 34.7221 883.096 34.5665 883.448 34.4176C883.97 34.243 884.463 33.9899 884.909 33.6664C885.755 33.0437 886.573 32.1706 886.518 30.9863C886.498 30.4516 886.349 29.9169 886.152 29.4026C887.215 28.9559 888.596 28.7122 890.355 28.9153C894.124 29.3552 894.861 31.7104 894.719 32.6918C894.577 33.6731 893.785 34.2213 893.521 34.3838C893.257 34.5462 893.176 34.6071 893.197 34.7289C893.23 34.9049 893.352 34.8981 893.576 34.8575C893.887 34.8034 895.552 34.0589 895.626 32.2383C895.734 29.9372 893.521 27.406 889.603 27.4263L889.6 27.4277ZM860.553 37.2209C859.308 38.5812 857.563 39.0956 856.812 38.6624C856.007 38.1941 856.325 36.1921 857.86 34.7425C858.794 33.8626 859.999 33.0505 860.797 32.5496C860.98 32.4414 861.244 32.2789 861.569 32.0827C861.595 32.0657 861.622 32.0499 861.65 32.0353C861.711 31.9947 861.778 31.9608 861.846 31.9202C862.407 33.9777 861.866 35.7915 860.553 37.2195V37.2209ZM869.647 31.035C869.214 32.0975 868.301 34.8047 867.745 34.6626C867.271 34.5408 866.98 32.4765 867.65 30.4462C867.989 29.4242 868.706 28.206 869.132 27.7322C869.816 26.9675 870.567 26.7238 870.743 27.0284C870.98 27.4277 869.918 30.3717 869.647 31.035ZM877.159 34.622C876.977 34.7167 876.807 34.7776 876.726 34.7303C876.665 34.6964 876.801 34.5678 876.801 34.5678C876.801 34.5678 877.741 33.5594 878.114 33.0992C878.33 32.8285 878.581 32.5104 878.851 32.1585C878.851 32.1923 878.858 32.2261 878.858 32.2667C878.85 33.4782 877.686 34.2971 877.158 34.622H877.159ZM882.953 33.3022C882.817 33.2075 882.838 32.8894 883.291 31.9013C883.467 31.5155 883.873 30.8658 884.577 30.2431C884.657 30.4787 884.7 30.725 884.705 30.9741C884.699 32.4969 883.609 33.0654 882.953 33.3022V33.3022Z" fill="#B4B4B4"/>
</g>
<g clip-path="url(#clip2)">
<path d="M34.618 117.609C32.1433 107.57 26.2964 104.278 25.6682 103.016C24.9782 102.122 24.2352 100.43 24.2352 100.43C24.2278 100.465 24.2278 100.487 24.2204 100.522V100.543C24.2204 100.572 24.2131 100.585 24.2131 100.614V100.642H24.2057V100.733H24.1984C24.1984 100.746 24.1984 100.768 24.191 100.775V100.817C24.191 100.83 24.191 100.845 24.1837 100.852V100.887C24.1837 100.909 24.1837 100.929 24.1763 100.944V100.951C24.175 100.982 24.1701 101.013 24.1616 101.043V101.056C24.1542 101.063 24.1542 101.07 24.1542 101.078V101.106H24.1469V101.148H24.1395V101.177H24.1248V101.219H24.1174V101.254H24.1101V101.282H24.1027V101.311H24.0954V101.339H24.088V101.368H24.0807V101.389H24.0733V101.418H24.066V101.446H24.0586C24.0512 101.446 24.0512 101.453 24.0512 101.453V101.467L24.0439 101.48C24.0439 101.494 24.0365 101.508 24.0292 101.522C24.0218 101.529 24.0218 101.529 24.0218 101.536V101.549H24.0145V101.563H23.9997V101.598H23.985V101.619H23.9777V101.626H23.9703V101.64H23.963V101.661H23.9556V101.675H23.9409V101.697H23.9335V101.71H23.9262V101.724H23.9188V101.745H23.9115V101.759H23.9041V101.766H23.8968V101.779H23.882V101.801H23.8747V101.808H23.8673V101.821H23.86V101.843H23.8526V101.85H23.8453V101.863H23.8379V101.87H23.8305V101.892H23.8158V101.898H23.8085V101.912H23.8011V101.919H23.7938V101.932H23.7864V101.946C23.7791 101.946 23.7791 101.952 23.7791 101.952V101.959H23.7717L23.7482 101.994C23.7482 101.994 23.7334 102.008 23.7334 102.016C23.7261 102.016 23.7261 102.023 23.7261 102.023V102.03H23.7187V102.036H23.7114V102.05H23.6967V102.057H23.6893V102.063H23.6819V102.084H23.6746V102.091H23.6672V102.097H23.6599V102.111H23.6525V102.097H23.6378V102.104H23.6305V102.118H23.6231V102.131H23.6157V102.138H23.6084V102.145H23.601V102.151H23.5937V102.165H23.579V102.172H23.5716V102.185H23.5642V102.192H23.5569V102.199H23.5495V102.22H23.5422V102.227H23.5348V102.234H23.5275V102.241H23.5201V102.248H23.5054V102.261H23.498V102.268H23.4907V102.275H23.4833V102.288H23.476V102.295H23.4613V102.302H23.4539V102.308H23.4465V102.322H23.4392V102.336H23.4318V102.342H23.4245V102.349H23.4098V102.356H23.4024V102.363H23.395V102.376H23.3877V102.383H23.3803V102.396H23.373V102.403H23.3656V102.41H23.3583V102.417H23.3509V102.424H23.3362V102.43C23.3288 102.43 23.3288 102.437 23.3288 102.437L23.3215 102.444L23.3141 102.451V102.464H23.3068V102.471H23.2994V102.478H23.2921V102.484H23.2847L23.27 102.498V102.505C23.2553 102.512 23.2553 102.518 23.2391 102.533C23.2391 102.533 23.2244 102.547 23.2155 102.547C23.192 102.56 23.1626 102.589 23.139 102.61C23.1243 102.617 23.1081 102.632 23.0934 102.639C23.0625 102.667 23.0316 102.687 23.0007 102.709C22.9551 102.751 22.9081 102.78 22.8551 102.821H22.8477L22.4873 103.111H22.4799C22.1503 103.379 21.759 103.724 21.3146 104.133L21.2764 104.168C18.6089 106.706 14.4025 112 13.9656 120.552C13.92 121.257 13.9273 121.948 13.9729 122.618V122.631C14.1877 126.002 15.3368 128.878 16.7772 131.218C17.3436 132.15 17.9645 132.996 18.5928 133.756C20.7541 136.38 22.961 137.938 23.5201 138.318C24.3867 140.157 24.3087 143.33 24.3087 143.33L25.5726 143.717C25.5726 143.717 25.3121 140.65 25.6726 139.163C25.7874 138.704 26.0478 138.31 26.3553 137.971C26.5701 137.837 27.1836 137.429 27.9193 136.809C27.9575 136.773 27.981 136.745 28.0119 136.71C30.9928 134.15 36.5645 127.848 34.6563 117.584L34.618 117.609Z" fill="#B4B4B4"/>
</g>
<path d="M171.022 104.039C168.603 104.256 165.427 105.104 161.51 106.62C160.446 107.414 159.218 108.19 157.847 108.948V109.183C157.955 109.183 158.063 109.11 158.208 109.038C158.37 109.02 158.478 109.074 158.478 109.237L158.713 109.092L158.839 109.074L158.857 109.201C158.875 109.309 158.009 109.977 156.331 111.186L156.439 111.421H156.331L156.042 111.33C156.042 111.421 155.934 111.457 155.681 111.475L155.699 111.601L155.988 111.926C155.879 111.926 155.753 111.908 155.609 111.836C155.049 111.89 154.526 112.305 153.966 113.063L154.111 113.28C154.58 112.846 154.851 112.63 154.923 112.63L154.959 112.973C154.887 112.973 154.742 113.063 154.598 113.117L154.887 113.55C155.428 112.937 156.078 112.413 156.764 111.998C157.107 112.088 157.287 112.161 157.287 112.305L157.54 112.287C159.381 110.915 161.222 109.941 163.026 109.327L163.044 109.562C162.702 110.067 162.467 110.356 162.341 110.356C162.359 110.518 162.431 110.663 162.521 110.789C162.557 111.114 161.745 113.171 160.067 117.015C156.24 125.931 153.064 132.518 150.501 136.814C150.501 136.886 150.555 137.012 150.646 137.157C151.277 136.994 151.674 136.85 151.819 136.706L151.999 136.688L152.017 136.922L152.252 136.904L152.505 136.76C152.505 136.85 152.595 136.868 152.721 136.85L152.775 137.085C152.775 137.337 152.649 137.698 152.36 138.185C152.089 138.474 151.819 139.088 151.53 140.026V140.135H151.765C152.793 138.962 153.623 137.825 154.129 136.724C157.125 135.839 159.417 134.991 161.005 134.125C162.593 133.998 163.82 133.583 164.651 132.916L164.633 132.753L164.037 132.916H163.893L163.875 132.825C165.048 132.645 165.86 132.374 166.257 132.013C168.585 130.281 170.3 129.035 171.473 128.295C175.082 125.642 176.779 123.079 176.58 120.661C176.562 120.408 175.75 119.38 174.198 117.683C174.162 117.358 174.721 116.889 175.822 116.257L178.945 113.496C179.648 112.594 180.064 111.15 180.208 109.147L180.154 108.677C180.045 107.27 179.035 106.133 177.086 105.266C175.967 104.49 173.945 104.093 171.022 104.039V104.039ZM174.812 105.609C177.14 105.699 178.331 106.097 178.403 106.836L178.313 107.071L174.812 105.609V105.609ZM172.574 107.576C174.18 107.558 175.01 107.973 175.1 108.876L175.281 108.858V108.262L175.534 108.244C176.183 108.551 176.472 108.984 176.508 109.453C176.544 109.814 176.364 110.211 175.985 110.699C175.822 110.717 175.732 110.608 175.714 110.356H175.461L175.389 111.096C174.378 112.666 173.584 113.478 173.115 113.532C172.682 114.11 172.411 114.417 172.303 114.417C171.978 114.814 171.076 115.499 169.596 116.438C169.109 116.492 167.286 117.178 164.163 118.549C164.001 118.477 163.839 118.477 163.658 118.477L163.64 118.261C163.604 117.791 163.802 117.232 164.254 116.528C164.452 115.247 164.759 114.507 165.048 114.326L167.665 108.443C167.647 108.082 168.188 107.811 169.343 107.649L169.722 107.576L169.758 107.919C170.877 107.739 171.581 107.649 171.852 107.649C172.104 107.594 172.357 107.576 172.574 107.576V107.576ZM177.988 108.172H178.06C178.277 108.19 178.493 108.551 178.728 109.291L178.746 109.508C178.62 109.526 178.385 109.147 178.042 108.389L177.988 108.172V108.172ZM163.225 111.908H163.333L163.369 112.251C163.261 112.269 163.099 112.431 162.918 112.756L162.9 112.522C163.117 112.251 163.225 112.034 163.225 111.908V111.908ZM155.735 112.088L155.753 112.161C155.663 112.161 155.537 112.269 155.428 112.341L155.266 112.359L155.23 112.161L155.735 112.088V112.088ZM162.178 114.362L162.214 114.868H162.088L162.034 114.38L162.178 114.362ZM161.871 115.211C161.835 115.608 161.745 115.77 161.546 115.824L161.42 115.842C161.565 115.572 161.637 115.391 161.619 115.247L161.871 115.211ZM161.348 116.438L161.366 116.546L161.149 116.925L160.915 116.943L160.897 116.835C161.131 116.817 161.24 116.673 161.222 116.456L161.348 116.438ZM160.843 117.575L160.752 118.134H160.626L160.59 117.575H160.843ZM173.602 117.972L174.108 118.279C174.126 118.477 174.054 118.531 173.891 118.549C173.738 118.437 173.557 118.369 173.368 118.351L173.35 117.99L173.602 117.972V117.972ZM163.55 119.307L163.604 119.524L163.117 119.578L163.099 119.38L163.55 119.307ZM171.671 120.12C171.996 120.282 172.177 120.445 172.195 120.571L172.213 120.679C171.87 120.715 171.581 120.535 171.292 120.156L171.671 120.12V120.12ZM175.57 120.499C175.84 120.607 175.967 120.733 175.985 120.842L176.057 121.762C175.949 122.015 175.84 122.141 175.714 122.141L175.57 120.499ZM169.253 120.607C170.516 120.589 171.491 120.878 172.141 121.509L172.195 121.979C171.671 123.621 171.004 124.577 170.318 124.866L167.159 127.375C164.813 128.927 163.55 129.685 163.369 129.703C159.633 131.76 157.305 132.825 156.403 132.916H156.258C156.385 132.482 158.045 129.071 161.258 122.682C162.647 122.556 164.921 121.888 167.953 120.697L168.693 120.625C168.892 120.625 169.072 120.607 169.253 120.607V120.607ZM164.669 121.347L164.687 121.455L164.181 121.491L164.163 121.383L164.669 121.347ZM156.8 128.963C156.637 129.775 156.475 130.208 156.331 130.208L156.277 130.082C156.24 129.667 156.421 129.306 156.8 128.963V128.963ZM167.484 129.468L167.502 129.685C167.52 129.793 167.159 130.082 166.437 130.605C164.344 131.634 163.117 132.338 162.756 132.699C160.482 133.493 159.363 133.98 159.381 134.161C157.359 134.973 156.042 135.551 155.428 135.911C155.266 135.93 155.049 135.857 154.761 135.731C154.742 135.334 154.905 134.991 155.32 134.72C155.663 134.72 156.006 134.72 156.331 134.883C156.71 134.72 157.359 134.486 158.28 134.251L158.262 134.016L157.522 134.089C157.612 133.962 158.334 133.637 159.688 133.078L160.067 133.042L160.085 133.15C159.453 133.204 159.092 133.403 159.038 133.746C159.038 133.872 159.092 133.962 159.254 133.944C159.706 133.619 159.94 133.457 159.94 133.403C160.843 133.24 163.369 131.905 167.484 129.468V129.468ZM156.078 130.551L156.096 130.66C156.114 130.822 156.024 130.912 155.861 130.93V130.822C155.843 130.678 155.916 130.587 156.078 130.551ZM161.745 132.013C161.871 131.959 161.962 132.013 161.962 132.158C161.673 132.194 161.113 132.428 160.283 132.916H160.157L160.139 132.681C160.734 132.627 161.258 132.392 161.691 132.013H161.745V132.013ZM156.24 133.818L156.258 133.962C156.15 133.962 156.042 134.016 155.879 134.107L155.645 134.125C155.627 134.016 155.699 133.908 155.861 133.872L156.24 133.818V133.818ZM153.353 135.262L153.623 135.37C153.515 136.092 153.317 136.453 152.956 136.525C152.723 136.382 152.453 136.312 152.18 136.327L152.144 135.984C152.126 135.839 152.216 135.749 152.396 135.713C152.541 135.695 152.631 135.803 152.649 136.038C153.082 135.514 153.317 135.262 153.353 135.262Z" fill="#B4B4B4"/>
<g clip-path="url(#clip3)">
<path fill-rule="evenodd" clip-rule="evenodd" d="M319.28 103.137H297.623C295.469 103.137 293.403 103.993 291.88 105.516C290.357 107.039 289.501 109.104 289.501 111.258V132.916C289.501 135.07 290.357 137.135 291.88 138.658C293.403 140.182 295.469 141.037 297.623 141.037H319.28C321.434 141.037 323.5 140.182 325.023 138.658C326.546 137.135 327.401 135.07 327.401 132.916V111.258C327.401 109.104 326.546 107.039 325.023 105.516C323.5 103.993 321.434 103.137 319.28 103.137V103.137ZM297.623 100.43C294.751 100.43 291.996 101.571 289.966 103.601C287.935 105.632 286.794 108.386 286.794 111.258V132.916C286.794 135.788 287.935 138.542 289.966 140.573C291.996 142.604 294.751 143.744 297.623 143.744H319.28C322.152 143.744 324.906 142.604 326.937 140.573C328.968 138.542 330.109 135.788 330.109 132.916V111.258C330.109 108.386 328.968 105.632 326.937 103.601C324.906 101.571 322.152 100.43 319.28 100.43H297.623Z" fill="#B4B4B4"/>
<path fill-rule="evenodd" clip-rule="evenodd" d="M309.904 132.916H300.497V110.027H309.699C313.995 110.027 316.583 112.217 316.583 115.739C316.583 118.133 314.823 120.274 312.568 120.656V120.926C315.663 121.243 317.723 123.447 317.723 126.43C317.723 130.458 314.788 132.916 309.904 132.916ZM304.052 113.04V119.719H308.269C311.41 119.719 313.045 118.56 313.045 116.389C313.045 114.278 311.504 113.04 308.873 113.04H304.052V113.04ZM309.19 129.903H304.052V122.526H308.984C312.33 122.526 314.092 123.78 314.092 126.176C314.092 128.601 312.395 129.903 309.19 129.903V129.903Z" fill="#B4B4B4"/>
</g>
<g clip-path="url(#clip4)">
<path d="M433.055 100.973V143.202H476.37V100.973H433.055ZM434.86 102.777H474.564V141.396H434.86V102.777ZM443.524 110.863C443.524 110.743 443.778 110.652 443.926 110.652C445.476 110.587 447.028 110.556 448.579 110.56C453.585 110.56 455.53 113.302 455.53 116.814C455.53 121.404 452.203 123.37 448.127 123.37C447.437 123.37 447.204 123.335 446.725 123.335V130.272C446.725 130.42 446.668 130.484 446.521 130.484H443.728C443.581 130.484 443.524 130.427 443.524 130.279V110.863ZM446.725 120.452C447.141 120.481 447.472 120.481 448.191 120.481C450.298 120.481 452.287 119.733 452.287 116.879C452.287 114.587 450.863 113.424 448.452 113.424C447.74 113.424 447.057 113.453 446.725 113.481V120.452ZM462.263 118.301C460.832 118.301 460.353 119.02 460.353 119.613C460.353 120.268 460.678 120.713 462.588 121.7C465.415 123.075 466.31 124.379 466.31 126.317C466.31 129.2 464.104 130.752 461.129 130.752C459.549 130.752 458.203 130.42 457.428 129.976C457.315 129.919 457.287 129.828 457.287 129.679V127.029C457.287 126.853 457.372 126.79 457.491 126.882C458.572 127.584 459.833 127.957 461.122 127.954C462.552 127.954 463.145 127.361 463.145 126.551C463.145 125.896 462.73 125.332 460.917 124.38C458.351 123.154 457.279 121.906 457.279 119.819C457.279 117.492 459.098 115.56 462.249 115.56C463.8 115.56 464.893 115.8 465.492 116.061C465.64 116.153 465.668 116.301 465.668 116.421V118.895C465.668 119.043 465.576 119.135 465.4 119.071C464.596 118.599 463.412 118.296 462.256 118.296L462.263 118.301Z" fill="#B4B4B4"/>
</g>
<g clip-path="url(#clip5)">
<path d="M573.817 113.668V128.107H585.843V130.504H595.474V128.107H617.132V113.668H573.817ZM585.843 125.688H583.446V118.469H581.036V125.688H576.228V116.072H585.843V125.688ZM593.064 125.688V128.107H588.256V116.072H597.886V125.695H593.064V125.688ZM614.728 125.688H612.324V118.469H609.913V125.688H607.502V118.469H605.105V125.688H600.282V116.072H614.728V125.688ZM593.064 118.476H595.474V123.291H593.064V118.476Z" fill="#B4B4B4"/>
</g>
<path d="M739.406 116.072C740.97 116.025 742.454 115.371 743.543 114.249C744.632 113.126 745.241 111.624 745.241 110.059C745.241 108.495 744.632 106.993 743.543 105.87C742.454 104.748 740.97 104.094 739.406 104.047H727.379C725.816 104.094 724.332 104.748 723.243 105.87C722.154 106.993 721.545 108.495 721.545 110.059C721.545 111.624 722.154 113.126 723.243 114.249C724.332 115.371 725.816 116.025 727.379 116.072C725.802 116.099 724.299 116.745 723.193 117.87C722.088 118.995 721.468 120.509 721.468 122.087C721.468 123.664 722.088 125.178 723.193 126.303C724.299 127.428 725.802 128.074 727.379 128.101C725.81 128.139 724.318 128.79 723.221 129.913C722.125 131.037 721.511 132.545 721.511 134.115C721.511 135.684 722.125 137.192 723.221 138.316C724.318 139.439 725.81 140.09 727.379 140.128C728.974 140.127 730.504 139.493 731.631 138.365C732.759 137.237 733.392 135.708 733.393 134.113V116.072H739.406Z" fill="#B4B4B4"/>
<path d="M739.406 128.101C742.727 128.101 745.42 125.409 745.42 122.088C745.42 118.767 742.727 116.074 739.406 116.074C736.085 116.074 733.393 118.767 733.393 122.088C733.393 125.409 736.085 128.101 739.406 128.101Z" fill="#B4B4B4"/>
<path d="M1013.64 103.656C1003.18 103.652 994.711 112.12 994.711 122.573C994.711 130.838 1000.01 137.864 1007.39 140.444C1008.39 140.694 1008.23 139.987 1008.23 139.505V136.227C1002.49 136.899 1002.26 133.101 1001.88 132.466C1001.1 131.138 999.258 130.8 999.808 130.165C1001.12 129.493 1002.45 130.335 1003.99 132.615C1005.11 134.268 1007.29 133.989 1008.39 133.714C1008.63 132.72 1009.15 131.832 1009.86 131.142C1003.91 130.077 1001.43 126.447 1001.43 122.133C1001.43 120.039 1002.12 118.114 1003.48 116.562C1002.61 114.003 1003.56 111.812 1003.68 111.486C1006.14 111.266 1008.7 113.246 1008.89 113.402C1010.29 113.026 1011.88 112.827 1013.67 112.827C1015.46 112.827 1017.06 113.034 1018.47 113.415C1018.95 113.051 1021.32 111.351 1023.6 111.558C1023.72 111.884 1024.65 114.024 1023.83 116.549C1025.2 118.106 1025.9 120.047 1025.9 122.145C1025.9 126.468 1023.41 130.102 1017.44 131.151C1017.95 131.653 1018.36 132.252 1018.64 132.913C1018.91 133.574 1019.05 134.284 1019.05 135V139.759C1019.09 140.14 1019.05 140.516 1019.69 140.516C1027.18 137.991 1032.57 130.914 1032.57 122.577C1032.57 112.12 1024.1 103.656 1013.64 103.656V103.656Z" fill="#B4B4B4"/>
<path d="M1029.36 36.0433L1014.32 44.8483V37.9884L1023.69 32.6512L1029.36 36.0433ZM1030.39 35.0782V16.6572L1024.88 19.9491V31.7862L1030.39 35.0782ZM997.965 36.0433L1013 44.8483V37.9884L1003.63 32.6512L997.965 36.0433ZM996.934 35.0782V16.6572L1002.44 19.9491V31.7862L996.934 35.0782ZM997.578 15.4647L1013 6.43359V13.0675L1003.05 18.7363L997.578 15.4647ZM1029.74 15.4647L1014.32 6.43359V13.0675L1024.27 18.7363L1029.74 15.4647ZM1013 36.4317L1003.76 31.1649V20.7383L1013 26.265V36.4317ZM1014.32 36.4317L1023.56 31.1649V20.7383L1014.32 26.265V36.4317ZM1004.38 19.5336L1013.66 14.2533L1022.94 19.5336L1013.66 25.0819L1004.38 19.5336Z" fill="#B4B4B4"/>
<g clip-path="url(#clip6)">
<path d="M863.971 114.99C865.304 109.643 868.638 106.969 873.971 106.969C881.971 106.969 882.971 112.984 886.971 113.987C889.638 114.656 891.971 113.653 893.971 110.979C892.638 116.326 889.304 119 883.971 119C875.971 119 874.971 112.984 870.971 111.982C868.304 111.313 865.971 112.316 863.971 114.99ZM853.971 127.021C855.304 121.674 858.638 119 863.971 119C871.971 119 872.971 125.016 876.971 126.018C879.638 126.687 881.971 125.684 883.971 123.01C882.638 128.357 879.304 131.031 873.971 131.031C865.971 131.031 864.971 125.016 860.971 124.013C858.304 123.344 855.971 124.347 853.971 127.021Z" fill="#B4B4B4"/>
</g>
<defs>
<clipPath id="clip0">
<rect width="43.3147" height="43.3147" fill="white" transform="translate(2.79932 3.33984)"/>
</clipPath>
<clipPath id="clip1">
<rect width="43.3147" height="43.3147" fill="white" transform="translate(852.312 3.33984)"/>
</clipPath>
<clipPath id="clip2">
<rect width="47.0812" height="43.3147" fill="white" transform="translate(0.916016 100.43)"/>
</clipPath>
<clipPath id="clip3">
<rect width="43.3147" height="43.3147" fill="white" transform="translate(286.794 100.43)"/>
</clipPath>
<clipPath id="clip4">
<rect width="43.3147" height="43.3147" fill="white" transform="translate(433.055 100.43)"/>
</clipPath>
<clipPath id="clip5">
<rect width="43.3147" height="43.3147" fill="white" transform="translate(573.817 100.43)"/>
</clipPath>
<clipPath id="clip6">
<rect width="40" height="40" fill="white" transform="translate(853.971 99)"/>
</clipPath>
</defs>
</svg>
